<svg xmlns="http://www.w3.org/2000/svg" viewBox="0 0 266.41 342.37"><defs><style>.cls-1{fill:#2c2c2c;}</style></defs><title>Inksacked</title><g id="Draw_Layer" data-name="Draw Layer"><path class="cls-1" d="M1114.36,491.23c-3.48.26-6.73,1.57-10.09,2.4-1.25.31-2.5.6-3.74,1a20.59,20.59,0,0,0-4.47,1.86,55.8,55.8,0,0,0-6.08,3.87,23.42,23.42,0,0,0-3,2.68c-.87.93-1.68,1.89-2.61,2.77a37.94,37.94,0,0,0-3,3.18c-1,1.19-1.87,2.46-2.78,3.7-1.12,1.34-2.45,2.49-3.64,3.76a38.07,38.07,0,0,0-2.92,3.78c-1.32,1.53-2.82,2.9-4.12,4.45a24.46,24.46,0,0,0-2.36,3.36c-.54.9-1.06,1.77-1.67,2.61-1.11,1.36-2.28,2.66-3.4,4s-2.45,3-3.62,4.53c-1.66,2-3.6,3.79-5.28,5.81s-3.26,4.42-4.9,6.62c-1.22,1.46-2.55,2.84-3.85,4.23-.76.82-1.53,1.63-2.24,2.49s-1.13,1.46-1.68,2.19c-1,1.28-2.09,2.5-3.15,3.74-1.27,1.49-2.48,3-3.66,4.58-2,2.71-3.48,5.79-5.33,8.62-1,1.44-1.92,2.86-3,4.24s-2,3.05-3,4.59q-1.28,2-2.63,4a38.68,38.68,0,0,0-2.41,4.25c-.58,1.12-1.07,2.27-1.63,3.39s-1.13,2.26-1.66,3.41c-1.13,2.36-2,4.84-3,7.26-.65,1.32-1.38,2.59-2,3.93-.71,1.54-1.32,3.13-1.89,4.74a20.79,20.79,0,0,0-1.29,10.49c.27,1.55.65,3.08,1,4.63s.54,3,.9,4.48a14.43,14.43,0,0,0,.82,2.28,15.65,15.65,0,0,0,1,2.05c.92,1.46,1.76,3,2.6,4.47a2.9,2.9,0,0,0,3.93,1,2.85,2.85,0,0,0,1.38-2.08,25.82,25.82,0,0,1-2.23-3.18c-1.92-3.21-3.8-8.84-3.43-12.65l.09-.95c-.08-.4-.15-.8-.22-1.2a18.82,18.82,0,0,1,0-3.44,28.08,28.08,0,0,1,1.1-4.38c.52-1.63,1.06-3.26,1.68-4.86s1.43-3.06,2-4.65,1.1-3.1,1.72-4.63c.6-1.34,1.23-2.66,1.9-4,.74-1.47,1.39-3,2.18-4.42s1.61-2.82,2.52-4.17,1.9-2.9,2.82-4.36c1.82-2.87,3.89-5.56,5.73-8.4.94-1.45,1.73-3,2.65-4.43s1.74-2.63,2.68-3.89c2.16-2.65,4.49-5.16,6.59-7.86l-.15.2c1.75-2.23,3.75-4.23,5.69-6.3a80,80,0,0,0,5.31-6.83c1.08-1.37,2.23-2.67,3.41-4,.59-.64,1.19-1.27,1.79-1.91s1.33-1.58,2-2.4c1.58-2,3.23-4,4.85-5.94.94-1.14,1.91-2.28,2.74-3.52.68-1,1.33-2,2-3.07,1-1.19,2.1-2.28,3.19-3.39.48-.48,1-1,1.45-1.46s1-1.25,1.52-1.89l.57-.74a44.34,44.34,0,0,1,3.38-3.48,34.39,34.39,0,0,0,3.46-4.16c.75-.93,1.55-1.8,2.36-2.66s2-1.88,2.91-2.88c.73-.8,1.45-1.63,2.23-2.39a27.67,27.67,0,0,1,2.19-1.84,31.92,31.92,0,0,1,2.86-1.87c1.13-.66,2.22-1.4,3.39-2a40.52,40.52,0,0,1,5.08-1.61c1.94-.48,3.85-1.06,5.82-1.4a21.31,21.31,0,0,1,4.3-.12c1.82.34,3.58.91,5.36,1.4s3.58,1,5.32,1.6c.46.22.9.45,1.34.71s1.11.77,1.66,1.17c1,.74,2.09,1.43,3.13,2.16,1.06.91,2,1.93,3.11,2.8a21,21,0,0,1,3,2.77c.57.88,1.06,1.8,1.57,2.71.66,1.16,1.41,2.27,2.1,3.42.58,1,1.13,1.94,1.78,2.85s1.6,2,2.43,2.93c.25.41.46.82.67,1.25.32.79.64,1.57,1,2.34s.75,1.54,1.11,2.32c.68,1.82,1.13,3.72,1.7,5.57a39,39,0,0,0,1.75,4.29c.43,1.3.71,2.63,1.1,3.94s.93,2.34,1.26,3.56.68,2.59,1,3.88.53,2.86.83,4.28a28.18,28.18,0,0,0,1.18,4.1c.22.61.46,1.21.7,1.81a17.53,17.53,0,0,1,.64,2.22c.35,1.38.58,2.8.91,4.18.16.64.37,1.27.51,1.91s.29,1.41.42,2.13c.38,3.15.64,6.31.9,9.47.14,1.82.35,3.62.6,5.42.21,1.48.56,3,.81,4.43.26,2.26.5,4.54.64,6.81.17,2.66.17,5.32.39,8,.1,1.25.28,2.5.39,3.76s.15,2.5.2,3.76a71,71,0,0,0,1,7.68c.1,1,.2,2,.31,3s.23,2,.38,2.92a7,7,0,0,0,.76,2.18,4.21,4.21,0,0,0,2.69,2.07,4,4,0,0,0,2.12,0,4.07,4.07,0,0,0,1.76-1,4,4,0,0,0,1-3.88c-.06-.38-.14-.75-.21-1.14-.24-1.88-.45-3.78-.76-5.65s-.75-3.69-1.07-5.55c-.34-2.94-.62-5.88-1.11-8.81-.19-1.76-.25-3.53-.36-5.29-.12-1.92-.36-3.82-.6-5.72a45.71,45.71,0,0,0-1.07-6.47c-.43-1.58-.83-3.14-1.11-4.75-.39-3.22-.63-6.45-1-9.67a34.9,34.9,0,0,0-1-5.84c-.44-1.56-.79-3.15-1.16-4.74-.19-.8-.38-1.61-.65-2.4s-.62-1.64-.91-2.47a32.32,32.32,0,0,1-1.25-4.95c-.15-.82-.2-1.64-.36-2.46s-.36-1.57-.55-2.35a35.67,35.67,0,0,0-1.38-4.63c-.77-1.95-1-4.07-1.73-6-.37-1-.78-1.92-1.11-2.91s-.6-2-.86-3a27.25,27.25,0,0,0-1.78-5.27c-.51-1-1-2.07-1.51-3.13-.23-.54-.46-1.08-.73-1.6a10.8,10.8,0,0,0-1.85-2.55c-.45-.48-.88-1-1.3-1.47-.74-1.12-1.3-2.34-1.93-3.53s-1.48-2.57-2.17-3.89a15.75,15.75,0,0,0-2.69-3.73,32.2,32.2,0,0,0-3.06-2.54c-1-.79-1.85-1.68-2.84-2.45-1.26-1-2.63-1.79-4-2.67a24.14,24.14,0,0,0-3.44-2,34.14,34.14,0,0,0-5.29-1.66l-5-1.29a18.25,18.25,0,0,0-4.4-.57c-.37,0-.73,0-1.1,0Zm-37,31.55-.25.33.25-.33Zm-38.77,38-.11.15.11-.15ZM1010,623.55l0,.25,0-.25Z" transform="translate(-980.01 -491.2)"/><path class="cls-1" d="M1011.4,641.74a2.37,2.37,0,0,0-.74,1.79c.13,1.07.27,2.15.44,3.22a8.51,8.51,0,0,0,.68,2.07,9.13,9.13,0,0,0,1.16,1.65,26,26,0,0,0,3.43,3.92c1.2,1.09,2.42,2.17,3.7,3.17.78.61,1.55,1.21,2.37,1.75.67.46,1.4.85,2.1,1.26,1.36.79,2.69,1.6,4,2.39s3,1.5,4.45,2.24,2.88,1.49,4.32,2.24,2.84,1.39,4.25,2.09a56.77,56.77,0,0,0,7.63,3.35q3.93,1.29,7.88,2.55c1.25.4,2.5.79,3.76,1.15l2.21.62c.71.2,1.46.31,2.19.46,1.36.29,2.75.44,4.13.64s2.83.37,4.24.54,3,.44,4.5.75l5.67,1.2c1.77.38,3.56.59,5.35.86,2,.29,4,.41,6.08.58,1.7.15,3.41.17,5.11.25s3.18.1,4.77.12c3.54,0,7.07,0,10.6.14l2.14,0c0-.38,0-.76-.08-1.14-.16-2.12-.28-4.24-.34-6.37-2.44-.11-4.87-.19-7.31-.25-3.23-.07-6.46-.14-9.69-.24s-6.43-.41-9.63-.71l-2-.32c-.71-.11-1.44-.19-2.14-.34-1.66-.37-3.31-.75-5-1.1l-2.9-.62c-.85-.18-1.73-.26-2.59-.38-1.76-.27-3.53-.47-5.3-.69l-2.75-.38c-.46-.07-.91-.19-1.37-.28s-1.12-.19-1.67-.34c-2.21-.6-4.42-1.23-6.62-1.87s-4.38-1.3-6.55-2a55.87,55.87,0,0,1-5.28-2c-2.31-1-4.62-2-7-3-1.28-.56-2.56-1.13-3.87-1.65s-2.61-1-3.91-1.49c-1.74-.77-3.44-1.63-5.16-2.45a35.68,35.68,0,0,1-5.43-3.29c-.62-.5-1.25-1-1.84-1.56-.43-.41-.84-.82-1.25-1.26s-.55-.71-.85-1l-.08-.11a18.75,18.75,0,0,1-1.11-1.58,12.93,12.93,0,0,1-.36-1.75v-.08a25.28,25.28,0,0,1-2.2-3.15l-.25-.43h-.21a2.54,2.54,0,0,0-1.79.74Z" transform="translate(-980.01 -491.2)"/><path class="cls-1" d="M1006.49,631.84a2.32,2.32,0,0,0-.65,1.58c-.09,1.24-.21,2.47-.22,3.71a14.49,14.49,0,0,0,0,1.74,10,10,0,0,0,.58,2.47,28.52,28.52,0,0,0,1.36,3.17,26.3,26.3,0,0,0,3.27,4.81,18.28,18.28,0,0,0,2.1,2.12,22.66,22.66,0,0,0,2.84,2c.85.55,1.68,1.11,2.52,1.69,1.29.9,2.55,1.85,3.83,2.78l.65.56a1.82,1.82,0,0,0,3.11-1.29,1.94,1.94,0,0,0-.53-1.29c-.66-.76-1.3-1.55-2-2.24a27.54,27.54,0,0,0-2.49-2.09c-1.46-1.09-3.06-2-4.53-3.05a21.82,21.82,0,0,1-3.07-3.23c-.41-.54-.8-1.08-1.17-1.65a12.84,12.84,0,0,1-1-1.86,19.34,19.34,0,0,1-1-3,17.81,17.81,0,0,1,0-2.31c0-1,.12-2,.2-3a2.24,2.24,0,0,0-3.82-1.58Z" transform="translate(-980.01 -491.2)"/><path class="cls-1" d="M1112.56,631.67c-.16,4.29-.28,8.58-.29,12.88,0,2,0,4.05,0,6.07a26.75,26.75,0,0,0,.94,6.23c.26,1,.59,1.88.78,2.85s.36,2,.51,3c.25,2.11.52,4.21.76,6.32.15,1.28.29,2.56.5,3.84a8.31,8.31,0,0,0,.36,1.45c.16.42.31.84.51,1.24a5.8,5.8,0,0,0,.65.91,3.41,3.41,0,0,0,.86.63l.33.35.19.28a1,1,0,0,0,1.16.47,1.05,1.05,0,0,0,.75-1,4.87,4.87,0,0,0,0-1.08c-.07-.5-.21-1-.3-1.5v-.07c-.17-1.75-.28-3.49-.4-5.25s-.35-3.45-.54-5.18c-.1-.82-.18-1.65-.29-2.48-.16-1.16-.33-2.31-.54-3.46-.15-.79-.41-1.55-.58-2.33s-.31-1.52-.42-2.28a16.67,16.67,0,0,1-.16-2.12c0-1,0-1.89,0-2.84l.09-5q.13-6,.35-11.92a2.65,2.65,0,0,0-5.29,0Z" transform="translate(-980.01 -491.2)"/><path class="cls-1" d="M1115.49,635.11a2.65,2.65,0,0,0-1.27,1.66c-.54,3.66-1.07,7.34-1.47,11a57.79,57.79,0,0,0-.52,8.1c0,1.34.21,2.67.3,4s.13,2.54.3,3.81c.11.82.2,1.64.38,2.46s.32,1.4.48,2.1c.28,1.29.52,2.57.76,3.87s.61,2.76.85,4.15c0,.5,0,1,0,1.5a7.14,7.14,0,0,0,.06.93,4.77,4.77,0,0,0,.58,1.9,2.49,2.49,0,0,0,2.15,1.23,2.47,2.47,0,0,0,2.4-1.83,7.22,7.22,0,0,0,.2-2.31,21.08,21.08,0,0,0-.36-2.25c-.12-.56-.33-1.1-.49-1.64-.22-.71-.35-1.45-.5-2.18-.26-1.31-.45-2.64-.74-3.95s-.52-2.34-.72-3.53c-.14-1.42-.19-2.84-.24-4.26-.06-1.66-.15-3.31-.14-5,0-.71.11-1.43.17-2.14s.17-1.7.26-2.55c.18-1.63.37-3.27.56-4.9q.49-3.55,1-7.11l.09-.74a2.71,2.71,0,0,0-.37-1.39,2.77,2.77,0,0,0-1.65-1.27,2.62,2.62,0,0,0-.73-.1,2.87,2.87,0,0,0-1.4.37Z" transform="translate(-980.01 -491.2)"/><path class="cls-1" d="M1169.57,628.56c-.79,0-1.59,0-2.39,0l-2.15.06c-.79,0-1.58,0-2.37,0h-2c-2.94,0-5.88.16-8.81.35s-5.6.24-8.39.27c-1.39,0-2.78-.08-4.16-.14s-3-.08-4.52,0c-2.37.11-4.72.39-7.09.37-2.81,0-5.6-.13-8.39-.4a2.88,2.88,0,0,0-2.14.88,3,3,0,0,0,0,4.28,3.17,3.17,0,0,0,2.14.88,78.4,78.4,0,0,0,9.57.42c3-.08,5.95-.42,8.93-.43,1.44,0,2.89.07,4.34.09s2.84-.06,4.26-.13,2.67-.09,4-.16,2.89-.19,4.33-.28c2.57-.17,5.14-.3,7.71-.41,1.15-.05,2.31-.1,3.47-.17a20.62,20.62,0,0,0,4.28-.59,2.5,2.5,0,0,0-.6-4.9Z" transform="translate(-980.01 -491.2)"/><path class="cls-1" d="M1112.59,634.66c.09,2,.23,3.92.37,5.87s.21,3.67.3,5.51.15,3.45.15,5.18c0,.81,0,1.61-.07,2.42a24.63,24.63,0,0,0,.05,2.58c0,.93.09,1.86.06,2.78s-.08,1.79-.12,2.68c-.08,1.73-.14,3.46-.17,5.19,0,.89,0,1.78,0,2.66s.09,1.78.15,2.67a34.09,34.09,0,0,1,.07,5.25,5.84,5.84,0,0,0,.74,2.75,1.49,1.49,0,0,0,1.67.68,1.53,1.53,0,0,0,.65-.38,1.51,1.51,0,0,0,.42-1l.28-1a6.34,6.34,0,0,0,.15-1.68c0-.88,0-1.76-.07-2.65s0-1.7,0-2.56-.1-1.77-.12-2.66c-.07-1.78,0-3.56,0-5.34s.11-3.49.07-5.24-.25-3.53-.36-5.3-.21-3.4-.33-5.1c-.06-.86-.14-1.71-.15-2.57s0-1.82,0-2.73c0-1.79-.17-3.57-.27-5.35,0-.88-.1-1.75-.14-2.63a1.63,1.63,0,0,0-1.61-1.61,1.61,1.61,0,0,0-1.6,1.61Z" transform="translate(-980.01 -491.2)"/><path class="cls-1" d="M1168,621.29a21.58,21.58,0,0,0-.58,3.29c-.09.86-.11,1.73-.13,2.59s-.06,1.7-.11,2.55-.25,2-.25,3a2.7,2.7,0,0,0,.8,1.91,2.61,2.61,0,0,0,1.91.8h0A2.66,2.66,0,0,0,1171,635a2.74,2.74,0,0,0,1.25-1.62,17,17,0,0,0,.28-2.48l.18-2.09c.12-1.32.26-2.62.42-3.93l0-.16.09-.72a2.6,2.6,0,0,0-.37-1.36,2.77,2.77,0,0,0-1.44-1.19l0-.18a1.77,1.77,0,0,0-1.72-1.31,1.82,1.82,0,0,0-1.73,1.31Z" transform="translate(-980.01 -491.2)"/><path class="cls-1" d="M1166.93,617.91c0,1.77,0,3.52.13,5.29,0,.78.09,1.55.17,2.32s.11,1.27.2,1.9c0,.05,0,.1,0,.15a3.7,3.7,0,0,0,0,1.81,5.14,5.14,0,0,0,1.3,2.56,3,3,0,0,0,1.49.8,4.75,4.75,0,0,0,1.68,0l1.09-.2a4.29,4.29,0,0,0,.71-.16,3.48,3.48,0,0,0,1.43-.93,5.12,5.12,0,0,0,1.12-2.23,6.35,6.35,0,0,0-.17-3.51,2.27,2.27,0,0,0-2.14-1.62,2.18,2.18,0,0,0-2.08,1.52l0-.13a17,17,0,0,1-.48-2.23,40.82,40.82,0,0,1-.27-5.3,2,2,0,0,0-4.08,0Zm.53,9.71h0v0Zm3.66.55-.11,0,.11,0Zm-.26,0h0l-.36,0,.35,0Zm.46.5-.09.11.09-.11Z" transform="translate(-980.01 -491.2)"/><path class="cls-1" d="M1194.66,627c-2.58.23-5.13.72-7.69,1.11q-3.43.4-6.9.64c-1.16.08-2.36,0-3.53,0l-5-.08a2.53,2.53,0,0,0,0,5.06c3.32.06,6.65.23,10,.06,2.82-.15,5.61-.35,8.41-.72l.23,0,.47-.06-.28,0,2.39-.31-.14,0c1.32-.17,2.63-.24,4-.29a25.58,25.58,0,0,1,3.61,0c2.24.23,4.51.07,6.76.29a11.1,11.1,0,0,1,1.59.46,6.85,6.85,0,0,1,.71.37h0A11.11,11.11,0,0,1,1210,635a5.25,5.25,0,0,1,.32,1c0,.2.07.39.1.59q.13,1.23.3,2.46c.15,1.28.22,2.57.32,3.85s.29,2.53.46,3.79c.12,1.08.18,2.16.25,3.25s.24,2.18.32,3.28c.15,2.13,0,4.26,0,6.38,0,1,.09,2,.15,3s.08,2.2.12,3.3,0,2.24.09,3.37A29.42,29.42,0,0,0,1213,673c.08.86.08,1.73.08,2.6,0,.45,0,.91,0,1.36a5.36,5.36,0,0,0,.51,2.3,7.48,7.48,0,0,0,1.12,1.51,2.3,2.3,0,0,0,2.26.59,2.27,2.27,0,0,0,1.62-1.62,3.48,3.48,0,0,1,.26-.83,6,6,0,0,0,.34-1.58c0-.32.07-.64.08-1,0-.59,0-1.19,0-1.79a32.14,32.14,0,0,0-.55-4.14c-.15-1.53-.08-3.08-.1-4.62s-.07-3.38-.18-5.06-.17-3.25-.32-4.87-.41-3.48-.67-5.22c-.12-1.14-.18-2.28-.33-3.42-.16-1.31-.39-2.61-.58-3.92a41.26,41.26,0,0,0-1-5.51c-.21-.81-.38-1.63-.56-2.44a13.52,13.52,0,0,0-1.39-3.31,7,7,0,0,0-1.34-1.81,6.59,6.59,0,0,0-1.72-1.09,12.7,12.7,0,0,0-2.94-1c-.84-.18-1.71-.26-2.57-.4-1.09-.17-2.18-.31-3.27-.46l.72.1a36.29,36.29,0,0,0-4-.46h-.75c-1,0-2.06,0-3.07.14Zm14.78,6.78,0,.07,0-.07Zm1,3.07a1.55,1.55,0,0,1,0,.21,1.55,1.55,0,0,0,0-.21Zm-20.3-3.81-.23,0h0l.44-.06-.19,0Z" transform="translate(-980.01 -491.2)"/><path class="cls-1" d="M1215.2,677c-.41.06-.81.14-1.22.21-1.34.11-2.68.13-4,.22s-3,.14-4.44.21c-3.08.15-6.15.2-9.22.26s-6.2.23-9.29.06-6.37.07-9.56.07c-6.07,0-12.15-.12-18.22.18-1.56.08-3.13.18-4.69.24-.68,0-1.35,0-2,0s-1.44,0-2.16,0c-3.14.16-6.29.18-9.44.22-4.25,0-8.5.18-12.75.06-2-.05-4,0-6-.08s-4-.23-6-.47c-.7-.14-1.4-.28-2.1-.44a2.3,2.3,0,0,0-1.22,4.43,84.4,84.4,0,0,0,9.9,1.34c1.39.14,2.79.21,4.19.31s2.85.31,4.28.4c3,.19,6.11.27,9.17.32s6.25,0,9.36.19c1.44.08,2.86.25,4.3.34,1,.07,2.06.06,3.09.06h1.48c3,0,5.94.08,8.91.09s6.22,0,9.32,0c1.66,0,3.32-.11,5-.19,1.49-.07,3-.16,4.49-.11,1.32,0,2.64.12,4,.09l4.23-.1c1.89,0,3.78,0,5.68,0h2.5c2.63,0,5.27-.17,7.9-.35,1.28-.09,2.58-.14,3.86-.3a11.08,11.08,0,0,0,4.53-1.26,3.24,3.24,0,0,0,1.55-3.69,3.35,3.35,0,0,0-.84-1.43,3.29,3.29,0,0,0-1.43-.84,3.09,3.09,0,0,0-1.15-.19,12.1,12.1,0,0,0-1.89.22Z" transform="translate(-980.01 -491.2)"/><path class="cls-1" d="M1030,678c-.6,0-1.21.13-1.82.19a14.89,14.89,0,0,1-1.77,0c-2.32,0-4.65,0-7,0-2.11,0-4.24,0-6.36.13-1.3.08-2.61.27-3.9.48-1.08.18-2.15.43-3.23.62l-.63.1c-1.38.15-2.78.22-4.17.44a19,19,0,0,0-1.95.46,11.73,11.73,0,0,1-1.79.3l.41,0-.47.06-.29,0,.19,0-2.57.38-1,.19a9.24,9.24,0,0,0-1.83.64,2.34,2.34,0,0,0-1.06,2.63,2.33,2.33,0,0,0,2.23,1.7h.18a13.88,13.88,0,0,0,2.23.18c.77,0,1.54-.08,2.3-.1s1.47,0,2.2-.12,1.56-.24,2.33-.37c1.23-.13,2.47-.1,3.71-.19,1.6-.12,3.17-.44,4.76-.67.93-.11,1.86-.18,2.8-.2s2.13,0,3.19.07c2.21.05,4.42.06,6.64.11l3.39.1c.59,0,1.17,0,1.76,0l2-.15a25.31,25.31,0,0,1,3.37.11c1.27.09,2.56.11,3.84.16,1.13,0,2.26.1,3.39.19s2.48.25,3.73.23c2.46,0,4.91-.11,7.36-.23s4.9,0,7.36.1c1,0,2.09,0,3.14,0,1.29,0,2.58,0,3.86,0,2.3.11,4.58-.05,6.88-.12s4.5-.09,6.76-.14c2.45-.06,4.9-.11,7.36-.09,1.26,0,2.52,0,3.78,0s2.28-.08,3.4-.15c2-.14,4-.32,6.06-.56s4.24-.38,6.36-.54,4.06-.29,6.1-.49c1-.11,2.06-.19,3.1-.25l1.6-.09.68,0a1.16,1.16,0,0,0,1.28.42,9.33,9.33,0,0,0,1-.48,1.24,1.24,0,0,0,.44-1.69,2,2,0,0,0-.58-.65,2.21,2.21,0,0,0-1-.24l-1.13,0-2.1-.05c-1.16,0-2.33-.11-3.49-.11-2.57,0-5.15,0-7.73-.1-1.22-.05-2.43-.08-3.65-.07s-2.47.09-3.71.14a63.53,63.53,0,0,1-7.17-.06c-4.8-.33-9.6-.51-14.41-.6-2.26,0-4.52-.12-6.79-.21-1.17,0-2.32-.15-3.48-.25s-2.3-.15-3.44-.2-2.31-.07-3.46-.16-2.47-.16-3.71-.21c-2.5-.09-5,0-7.49.06-1.22,0-2.43,0-3.65,0s-2.4-.19-3.58-.29c-2.4-.21-4.81-.19-7.21-.36-.71,0-1.41-.09-2.11-.09q-.72,0-1.44.06Zm-36.74,8.35.2,0-.2,0Z" transform="translate(-980.01 -491.2)"/><path class="cls-1" d="M1220.26,677.87a12.44,12.44,0,0,0-3.64.6c-1.26.42-2.51.86-3.75,1.31l-.37.13a1.88,1.88,0,0,0-1.29,2.28,1.85,1.85,0,0,0,2.27,1.29l3.77-1.36a16.94,16.94,0,0,1,2.91-.85,17.43,17.43,0,0,1,3.23,0,16.45,16.45,0,0,1,2.82.88,10.14,10.14,0,0,1,1.63.94,12.27,12.27,0,0,1,1,1c.37.4.76.77,1.12,1.17a13,13,0,0,1,.87,1.43c.16.48.27,1,.44,1.44a6.08,6.08,0,0,0,1.61,2.63,3,3,0,0,0,2.82.74,2.9,2.9,0,0,0,2.13-2.79,6.47,6.47,0,0,0-.17-1.17,6.59,6.59,0,0,0-.39-1,6.68,6.68,0,0,0-.41-.67,18.9,18.9,0,0,0-1.43-2,11.16,11.16,0,0,0-1.27-1.21,17.69,17.69,0,0,0-1.62-1.23l-1.21-.77c-.38-.27-.76-.55-1.15-.81a12.5,12.5,0,0,0-3.13-1.37,17,17,0,0,0-3.48-.51,23.56,23.56,0,0,0-2.38-.11Z" transform="translate(-980.01 -491.2)"/><path class="cls-1" d="M1212.82,678.58a2.74,2.74,0,0,0-1.73,1.34,2.9,2.9,0,0,0-.3,2.23,2.94,2.94,0,0,0,1.33,1.72,3.15,3.15,0,0,0,2.23.3l1.13-.16a15.79,15.79,0,0,1,2.57-.18c.78,0,1.56.11,2.33.2,1.24.21,2.45.52,3.68.74a30.76,30.76,0,0,1,3.58.76q.38.19.72.42a13.74,13.74,0,0,1,1.36,1.49,3.45,3.45,0,0,1,.2.32c.23.76.37,1.55.61,2.32a26.49,26.49,0,0,0,1.08,2.8,46.7,46.7,0,0,1,1.1,5.51c.11.46.29.9.43,1.34s.24,1.1.36,1.64.26,1,.38,1.57c.08.32.13.64.18,1,.16,1.32.34,2.63.63,3.93.13.57.18,1.14.29,1.71a9.68,9.68,0,0,0,.73,2.1,10.42,10.42,0,0,1,.41,1.84c.13,1,.26,1.95.44,2.92s.33,1.63.45,2.46c0-.34-.1-.69-.14-1,.17,1.34.39,2.66.6,4,.22,2.3.14,4.58.2,6.89,0,1.3,0,2.59.1,3.89s.17,2.43.33,3.64l0-.14a38,38,0,0,1,.38,4.66c0,.86,0,1.73,0,2.59,0,.61,0,1.23,0,1.84a2,2,0,0,1-.05.24c-.17.28-.36.53-.55.79s-.52.8-.77,1.2c-.4.65-.82,1.29-1.24,1.93a12.2,12.2,0,0,1-1.14.58c-1,.4-2.06.77-3.08,1.23a10.32,10.32,0,0,0-2.38,1.74c-.35.32-.67.66-1,1a14.21,14.21,0,0,0-1.29,1.61c-.3.41-.6.82-.88,1.25a12.88,12.88,0,0,0-1.58,3.72,2.79,2.79,0,0,0,4.68,2.72,13.58,13.58,0,0,0,1.93-2.52,17.23,17.23,0,0,1,1.07-1.51,15.71,15.71,0,0,1,1.93-2l.42-.27c1.06-.34,2.17-.47,3.21-.87a8.4,8.4,0,0,0,2.79-1.62,8.72,8.72,0,0,0,1.24-1.8c.19-.22.38-.44.57-.68.35-.44.66-.91,1-1.36.26-.29.53-.56.8-.84a7.46,7.46,0,0,0,1.66-3.08,13.81,13.81,0,0,0,.34-2.94c0-.85.14-1.69.23-2.53a33.24,33.24,0,0,0,.07-4.68,48.49,48.49,0,0,0-.55-5.51c-.22-1.74-.39-3.47-.48-5.22-.1-2-.32-4-.59-6-.08-.77-.14-1.55-.2-2.33s-.18-1.56-.25-2.34c-.09-1.18-.24-2.34-.41-3.51a12.53,12.53,0,0,0-1.17-3.48,10.77,10.77,0,0,1-.39-1.68c-.22-1.94-.31-3.89-.63-5.81s-.84-3.66-1.13-5.5a17.33,17.33,0,0,0-1-4.48c-.54-1.3-1.21-2.52-1.8-3.79a25.57,25.57,0,0,0-1-2.42A10.45,10.45,0,0,0,1235,682a11.44,11.44,0,0,0-5.5-3.68,19.39,19.39,0,0,0-4.3-.39c-.66,0-1.33,0-2,0s-1.27-.14-1.9-.15H1221a57.5,57.5,0,0,0-8.18.79ZM1234.07,704c0,.17,0,.34.07.51,0-.17-.05-.34-.07-.51Zm1.89,45.15a.18.18,0,0,1,0,.07l0-.07Z" transform="translate(-980.01 -491.2)"/><path class="cls-1" d="M1238.67,743.69c0,.9-.07,1.81-.16,2.71a12.65,12.65,0,0,1-.33,1.35l-.12.22a20.45,20.45,0,0,1-2.34,2.12,11.25,11.25,0,0,1-1.21.83c-.66.39-1.33.75-2,1.14-1.23.74-2.56,1.33-3.72,2.15a10.29,10.29,0,0,0-3.47,4,24.56,24.56,0,0,0-1.72,4.68c-.19.79-.38,1.58-.55,2.37a33.09,33.09,0,0,0-.48,3.44c-.2,1.84-.27,3.68-.32,5.53s0,3.53.1,5.3c0,.84,0,1.68.06,2.52s.07,1.86,0,2.78-.17,1.83-.28,2.75a25,25,0,0,0-.34,2.87c0,.53-.06,1.06-.11,1.59s-.25,1.34-.43,2l-.09.16-.22.22c-.63.46-1.28.91-1.9,1.38l.28-.22a5.62,5.62,0,0,1-.5.35,9.7,9.7,0,0,1-1.07.23c-.66.06-1.31,0-2,0a20,20,0,0,1-2-.07,14.13,14.13,0,0,1-2.23-.61l-.2-.11c-.66-.65-1.2-1.45-1.82-2.14-.34-.38-.67-.78-1-1.15s-.6-.57-.88-.86a4.67,4.67,0,0,1-.27-.49c-.08-.24-.14-.48-.2-.74-.11-1.17-.21-2.34-.36-3.51a19.22,19.22,0,0,1,0-4.42c.28-2.65.53-5.32.67-8a26.26,26.26,0,0,0,.16-4.43c-.08-.72-.17-1.43-.26-2.14a14.13,14.13,0,0,0-.52-2.89c-.3-.87-.67-1.71-1-2.56a9.1,9.1,0,0,0-1.81-2.62c-.39-.42-.82-.81-1.22-1.2a6.93,6.93,0,0,0-2.93-1.67,3.42,3.42,0,0,0-3.86,5l.06.06a7.69,7.69,0,0,0,.84,1.73c.32.49.64,1,.92,1.47a19.4,19.4,0,0,1,.48,2c0,.62,0,1.24.08,1.87s.05,1.08.08,1.62,0,1.05-.08,1.57c-.08,1.72-.1,3.45-.2,5.18s-.08,3.45-.12,5.16a25.55,25.55,0,0,0,.08,2.77,35.63,35.63,0,0,0,.6,3.7c.14.82.27,1.65.43,2.48a10,10,0,0,0,1.48,3.54,7.19,7.19,0,0,0,1.38,1.63c.2.17.41.33.6.52.39.37.72.78,1.07,1.18.65.75,1.4,1.42,2.08,2.14a8.35,8.35,0,0,0,2.11,1.69,19.89,19.89,0,0,0,2.43,1,15.88,15.88,0,0,0,7.89.49,7.77,7.77,0,0,0,1.58-.47,8.35,8.35,0,0,0,3.22-1.84l1.74-1.71a13.81,13.81,0,0,0,2.26-3,19.63,19.63,0,0,0,1.24-3.08c.33-.92.68-1.82,1-2.77a25.31,25.31,0,0,0,.65-3.78c.12-.81.23-1.62.29-2.43s0-1.55,0-2.32c0-1.44-.07-2.88-.17-4.32s-.15-3-.16-4.5,0-2.92.09-4.38a43.13,43.13,0,0,1,1-4.34,32.2,32.2,0,0,1,1.12-3.31,7.9,7.9,0,0,1,.47-.85,10.92,10.92,0,0,1,1-1c.46-.33.94-.64,1.41-1,.74-.51,1.44-1.08,2.19-1.58a35.67,35.67,0,0,0,3.74-3,16.62,16.62,0,0,0,1.24-1.28,8.58,8.58,0,0,0,1.51-2,17.11,17.11,0,0,0,1.26-6.87,3.1,3.1,0,0,0-6.19,0Zm-42.52,18.21a1.48,1.48,0,0,1,.12.29l-.12-.29Z" transform="translate(-980.01 -491.2)"/><path class="cls-1" d="M1188.27,753.16a20,20,0,0,0-4.41.86,16.1,16.1,0,0,0-2.4,1.07,13.2,13.2,0,0,0-1.86,1.3,18.37,18.37,0,0,0-1.93,1.81,12.72,12.72,0,0,0-2.35,3c-.34.67-.64,1.37-.92,2.07l-.32.76a10.74,10.74,0,0,0-.51,2.7,18.27,18.27,0,0,0,0,3.39,18.54,18.54,0,0,0,.29,2.46c.1.47.25.93.36,1.41a6.8,6.8,0,0,1,0,.9A13.79,13.79,0,0,0,1174,777c0,.83-.06,1.66,0,2.48a25.13,25.13,0,0,0,.42,3,10.55,10.55,0,0,0,.78,2.23c1,2.68,1.08,5.7,2.76,8.12a10.52,10.52,0,0,1,.88,1.39c.16.31.28.64.44.95a11.27,11.27,0,0,0,.65,1c.39.58.64,1.23,1,1.82a12.33,12.33,0,0,0,1.33,1.74c.08.14.15.28.22.42.3.73.56,1.48.81,2.24a10.6,10.6,0,0,0,.89,2c.26.45.58.83.82,1.3.31.75.61,1.5.87,2.27.17.51.32,1,.52,1.52a10.61,10.61,0,0,0,.62,1.37,3.79,3.79,0,0,1,.2.34,14.46,14.46,0,0,1,.42,2.08,16.06,16.06,0,0,1,.11,2.69c-.07.9-.16,1.81-.27,2.7a11,11,0,0,1-.53,1.89c-.11.22-.22.44-.35.66-.44.47-.9.91-1.34,1.38s-.69.75-1,1.1-.94.49-1.4.75a15.69,15.69,0,0,1-1.41.73l-1,.41a24.36,24.36,0,0,1,.93,4.33c.14.55.27,1.1.37,1.65l.38-.15c.79-.32,1.59-.6,2.36-.94.58-.26,1.14-.55,1.71-.82a14.27,14.27,0,0,0,3.49-2.25,15.78,15.78,0,0,0,3.28-3.69,16.49,16.49,0,0,0,1.74-4.37,16,16,0,0,0,.56-4.34c0-.62-.07-1.24-.15-1.85a15.85,15.85,0,0,0-.52-2.91,9.82,9.82,0,0,0-1.37-2.84,10.48,10.48,0,0,1-1-1.74c-.45-.91-.88-1.83-1.28-2.76a8.54,8.54,0,0,0-.69-1.3c-.26-.41-.53-.78-.75-1.21s-.41-1-.62-1.57a1.69,1.69,0,0,0,.12.28c-.29-.69-.57-1.39-.88-2.08a8.54,8.54,0,0,0-1.29-1.87,10,10,0,0,1-.69-1.19,9.15,9.15,0,0,0-1-1.57c-.37-.52-.67-1.07-1-1.62a10.35,10.35,0,0,0-1.09-1.47,8.69,8.69,0,0,1-.61-1.07,35.86,35.86,0,0,1-.91-4.5c-.17-.84-.52-1.63-.75-2.45a13,13,0,0,1-.36-1.64c0-.74,0-1.48,0-2.22s-.14-1.42-.13-2.13a13.31,13.31,0,0,0-.16-2.67c-.11-.61-.28-1.19-.4-1.79a21.07,21.07,0,0,1,0-3.81,9.38,9.38,0,0,1,.22-1.08,2.47,2.47,0,0,1,.15-.46,9.19,9.19,0,0,1,.69-1.32,19.71,19.71,0,0,1,2.51-2.41,15.14,15.14,0,0,1,2.26-1.26,17.23,17.23,0,0,1,3-.76,22.08,22.08,0,0,1,3.9,0,15.93,15.93,0,0,1,2.21.74c.69.27,1.41.49,2.11.75a11.46,11.46,0,0,1,1.69,1.07l-.21-.17a2.9,2.9,0,0,0,4.78-2.22,2.75,2.75,0,0,0-.86-2.06,18.07,18.07,0,0,0-2.17-1.53c-.68-.37-1.4-.66-2.09-1s-1.23-.65-1.84-1a9.23,9.23,0,0,0-3.49-1.12,21.33,21.33,0,0,0-2.4-.15,17.69,17.69,0,0,0-1.93.11Zm9.62,8.66.11.09-.11-.09Zm-17.64,3.26-.15.35.15-.35Z" transform="translate(-980.01 -491.2)"/><path class="cls-1" d="M1145.51,741.18a2.68,2.68,0,1,0,1.43,5.17c.31-.07.62-.13.94-.18a15,15,0,0,1,2,0,8.81,8.81,0,0,1,1.25.32,4.48,4.48,0,0,1,.6.35c.47.38.93.76,1.41,1.12s.93.55,1.39.83a16.3,16.3,0,0,1,1.45,1.65,7.66,7.66,0,0,1,.55,1c.53,1.45,1.07,2.89,1.5,4.37.24.82.58,1.59.83,2.4a14.35,14.35,0,0,1,.42,2.34l-.09-.69a84.43,84.43,0,0,1,.37,9c0,1.45,0,2.89,0,4.34s-.09,2.91-.17,4.36c-.31,6.08-.12,12.18-.16,18.26,0,2.9,0,5.79.09,8.69s0,5.5,0,8.26c0,1.36-.05,2.74,0,4.11a19,19,0,0,0,.76,4.43,16.93,16.93,0,0,0,3.85,6.91,11.83,11.83,0,0,0,1.87,1.59c.43.3.87.58,1.3.86s.92.51,1.37.77.85.58,1.31.83a11.1,11.1,0,0,0,4.81,1.29,9.6,9.6,0,0,0,1.93-.15c.76-.1,1.51-.23,2.27-.35.61-.06,1.22-.12,1.83-.21.42-.07.83-.22,1.25-.33h.1a2.09,2.09,0,0,0,.34,0,5,5,0,0,0,2-.54,6.74,6.74,0,0,0,1.57-1.15,11.67,11.67,0,0,0,1.41-1.11,12.07,12.07,0,0,0,1.73-2.72l0,0a2.37,2.37,0,0,0,1-2.58,2.2,2.2,0,0,0-.6-1,2.4,2.4,0,0,0-1.53-.67,4.48,4.48,0,0,0-.94-.12,4.83,4.83,0,0,0-2.2.57,10.77,10.77,0,0,0-.86.65,3.34,3.34,0,0,0-.32.33l-.45.46-.15.08c-.39.16-.79.31-1.17.49l-.35.2h-.46a8.63,8.63,0,0,0-2.25.44,11.63,11.63,0,0,1-1.17.26l-1.12.29-1.47.1c-.52,0-1.06,0-1.59,0a8.19,8.19,0,0,1-.81-.23,12,12,0,0,0-2.42-.93,8.67,8.67,0,0,1-1.23-.36c-.36-.14-.75-.22-1.12-.33a11.74,11.74,0,0,1-1-1l-.8-1.14a18.28,18.28,0,0,1-1.16-1.75,16.31,16.31,0,0,1-.85-3,33.34,33.34,0,0,1-.07-4c0-1.39.08-2.78.21-4.16s.28-2.68.31-4c.05-1.52.08-3,.11-4.54,0-2.91,0-5.81,0-8.71q0-4.59.07-9.18c.07-5.94.37-11.87.17-17.81a31.84,31.84,0,0,0-1.33-8.73c-.2-.64-.48-1.25-.69-1.89s-.39-1.31-.58-2a23.74,23.74,0,0,0-1.49-4.45,12.26,12.26,0,0,0-.94-1.44c-.44-.63-.86-1.26-1.35-1.85a13.79,13.79,0,0,0-2.91-2.21,9.17,9.17,0,0,0-1.26-.88,8.6,8.6,0,0,0-2.14-.79,14.79,14.79,0,0,0-3-.31,17.27,17.27,0,0,0-3.73.42Zm22.28,83.26.08.06-.08-.06Z" transform="translate(-980.01 -491.2)"/><path class="cls-1" d="M1142,742a7.22,7.22,0,0,0-2.61,1.42c-.38.33-.75.66-1.13,1l-.49.38a15.54,15.54,0,0,0-1.8,1.41,6.27,6.27,0,0,0-1.72,3.38,22.77,22.77,0,0,0-.45,3.3,24,24,0,0,0,.1,2.54c0,.77,0,1.55.06,2.32a12.89,12.89,0,0,1-.14,2.06c-.1.81-.17,1.62-.2,2.44s-.14,1.44-.22,2.17a11.25,11.25,0,0,1-.5,2,13.43,13.43,0,0,1-1.19,2.09c-.15.19-.31.37-.46.54s-.45.55-.7.8c-.62.37-1.3.65-1.92,1s-1.28.79-1.94,1.13a14.07,14.07,0,0,0-3.43,1.64c-.61.46-1.17,1-1.74,1.47-.41.36-.85.7-1.26,1.06a7.83,7.83,0,0,0-.9,1c-.43.53-.86,1.06-1.27,1.59a6.73,6.73,0,0,0-.93,2.06,14.47,14.47,0,0,0-.44,1.95,28.78,28.78,0,0,0-.46,4.24c0,1.22.06,2.43,0,3.65s-.07,2.43,0,3.65a22.69,22.69,0,0,0,.28,3.95c.06.3.11.6.16.9l.24,1.79c0-.11,0-.22,0-.32.13,1.12.3,2.24.46,3.35.11.87.22,1.73.34,2.6s.3,1.67.43,2.51c0-.19-.05-.38-.07-.56a20.48,20.48,0,0,1,.3,3.75c-.07,1.08-.08,2.16-.19,3.23a24.19,24.19,0,0,1-1.1,4.76,9.64,9.64,0,0,1-.73,1.34,12.38,12.38,0,0,1-1,.93l-.23.14a12.16,12.16,0,0,1-1.44.48,6.89,6.89,0,0,1-.91,0,12.15,12.15,0,0,1-2-.72,12.8,12.8,0,0,0-3.31-.73,12,12,0,0,0-3.22.1,8.48,8.48,0,0,0-1.11.25c-.38.11-.73.26-1.1.37l-.7-.23a6.5,6.5,0,0,0-3.1.08l-2,.32-.58,0a2.81,2.81,0,0,0-1.3-.32,2.82,2.82,0,0,0-2,4.81,8,8,0,0,0,1.57,1.21,5,5,0,0,0,2.7.54c.77-.06,1.55-.23,2.32-.35l-.44.06,1.56-.23.38.1a6.13,6.13,0,0,0,3.18-.06c.4-.11.78-.29,1.18-.43a4.48,4.48,0,0,1,.82-.21,19.79,19.79,0,0,1,3.69-.07,16.54,16.54,0,0,0,1.72.24,11.17,11.17,0,0,0,2.23-.22,7.76,7.76,0,0,0,1.57-.36c.66-.26,1.31-.57,2-.87a6.19,6.19,0,0,0,1.58-1.25,8.72,8.72,0,0,0,1.16-1.34,11.61,11.61,0,0,0,1.39-2.88,30,30,0,0,0,1.38-7,36.41,36.41,0,0,0,0-6.52c-.1-1-.2-2.09-.24-3.14a28.25,28.25,0,0,0-.38-3.3c-.16-1.28-.28-2.57-.45-3.85a15.4,15.4,0,0,1,0-2.8c.08-1,.19-2,.31-3s.2-2.07.28-3.11c.06-.8.16-1.61.26-2.41h0c0-.25.07-.5.1-.75,0,.12,0,.24,0,.36.1-.76.18-1.52.27-2.28a11.92,11.92,0,0,1,.44-1.76,9,9,0,0,1,.75-1.11,13.22,13.22,0,0,1,1.4-1.3c.51-.43,1-.91,1.46-1.36a11.54,11.54,0,0,1,1.16-.6,24.33,24.33,0,0,0,2.29-1c.67-.36,1.35-.7,2-1.1a9.78,9.78,0,0,0,2.41-1.83c.41-.48.82-1,1.2-1.46a15.39,15.39,0,0,0,2.47-4.58,13.35,13.35,0,0,0,.47-2.95c.06-.69.14-1.38.22-2.06s.24-1.33.39-2a23,23,0,0,0,.4-2.62c.09-.79.18-1.58.2-2.37,0-.38,0-.76,0-1.15a7.73,7.73,0,0,1,.07-1c.07-.48.15-1,.24-1.45s.17-1,.31-1.54a1.74,1.74,0,0,1,.11-.18c.41-.44.87-.83,1.3-1.25s1-1,1.45-1.41a7.58,7.58,0,0,1,.74-.4,5.76,5.76,0,0,1,.59-.18h.14a13.53,13.53,0,0,1,1.4.47,2.31,2.31,0,0,0,1.87-.24,2.41,2.41,0,0,0,.87-3.32,2.56,2.56,0,0,0-1.45-1.11,10.11,10.11,0,0,0-2-.6,7.15,7.15,0,0,0-1.3-.12,6.33,6.33,0,0,0-1.94.29Zm-2.31,10.52,0,.15,0-.15Zm-39.79,75.83-.18,0,.18,0Z" transform="translate(-980.01 -491.2)"/><path class="cls-1" d="M1038.34,765.87a2.76,2.76,0,0,0,1.9,3.34c.82.27,1.65.51,2.48.74.65.19,1.3.35,1.93.58a16.91,16.91,0,0,1,2.14,1.15c.38.34.75.69,1.14,1a12.36,12.36,0,0,1,1.09.95c.22.35.42.72.61,1.09s.53,1,.77,1.55a26.38,26.38,0,0,1,1,3.12c.15.57.29,1.14.46,1.71s.39,1.19.53,1.8c.25,1.19.34,2.42.64,3.59a13.68,13.68,0,0,0,.57,1.67c.2.51.35,1,.53,1.56.37,1.07.69,2.14,1,3.23s.67,2.25,1,3.38a24.15,24.15,0,0,1,.61,3.16,18.83,18.83,0,0,0,1,3.46c.31.86.66,1.7,1,2.53a7.56,7.56,0,0,0,1.77,2.39,16,16,0,0,0,2.3,1.72,17.67,17.67,0,0,0,2.07,1.27,18.26,18.26,0,0,0,6.11,1.44c.83.08,1.65.2,2.49.26.65,0,1.3.08,2,.15.48.08,1,.18,1.42.28a20.88,20.88,0,0,0,2.36.31,12.33,12.33,0,0,1,2.08.49l.86.37a4.07,4.07,0,0,1,.53.31,14.73,14.73,0,0,1,1.48,1.36,20.32,20.32,0,0,1,2.26,4,20.45,20.45,0,0,0,3,5.29,7.53,7.53,0,0,0,2.83,2,17.29,17.29,0,0,0,2.09.74l.82.27a8.74,8.74,0,0,0,1.82.29,16.66,16.66,0,0,0,3.53-.18,15.63,15.63,0,0,0,3.13-.86,2.13,2.13,0,0,0-.56-4.18h-.22c-.83-.19-1.63-.52-2.45-.71a12.88,12.88,0,0,0-2.22-.3l-1.14,0a19.35,19.35,0,0,1-2-.55l-.4-.22c-.25-.23-.47-.49-.71-.74s-.37-.4-.55-.61a37.48,37.48,0,0,1-2.19-3.8,26.83,26.83,0,0,0-2.82-4.41,12,12,0,0,0-1.6-1.42,12.62,12.62,0,0,0-1.65-1.26c-.31-.19-.64-.36-1-.54a11.06,11.06,0,0,0-2.59-1.07c-.39-.11-.77-.21-1.16-.3a13.81,13.81,0,0,0-1.42-.19c-.65-.13-1.28-.31-1.93-.42-1.09-.19-2.17-.31-3.27-.4-.83-.08-1.66-.16-2.49-.22-.65-.05-1.3-.09-1.94-.16l-1.41-.25a7.85,7.85,0,0,1-1.42-.46c-.44-.2-.88-.41-1.33-.6a9.33,9.33,0,0,1-1.27-.62c-.17-.15-.32-.3-.47-.46a4.67,4.67,0,0,1-.27-.49,14,14,0,0,1-.64-2c-.09-.41-.15-.83-.26-1.24s-.21-.73-.29-1.11c-.11-1.07-.16-2.14-.32-3.21s-.5-2.33-.78-3.49-.49-2.08-.82-3.1-.75-2.06-1.2-3.07a7.4,7.4,0,0,1-.26-1c-.14-1.2-.27-2.4-.46-3.6-.08-.5-.24-1-.36-1.49s-.24-1.11-.37-1.66a21.62,21.62,0,0,0-1-3.35,16.27,16.27,0,0,0-1.06-2.23c-.28-.48-.6-1-.92-1.4a7.63,7.63,0,0,0-1.35-1.59,11.84,11.84,0,0,0-1.74-1.18c-1-.53-1.76-1.26-2.75-1.74a20.22,20.22,0,0,0-3.22-1.37c-1.27-.34-2.54-.67-3.78-1.08a2.35,2.35,0,0,0-.73-.11,2.81,2.81,0,0,0-2.62,2Z" transform="translate(-980.01 -491.2)"/><path class="cls-1" d="M1040.78,764c-1.43.28-2.86.59-4.3.83a8.44,8.44,0,0,1-1.33,0c-.75-.05-1.5-.15-2.24-.2a15.44,15.44,0,0,0-1.8,0,17.35,17.35,0,0,0-2.15.29c-1,.1-2,.12-3,.21a20.48,20.48,0,0,0-4,.72,14.6,14.6,0,0,0-4.09,1.61,16.29,16.29,0,0,0-3,2.68,9.48,9.48,0,0,0-2.34,4.39,30.5,30.5,0,0,0-.51,4.36c-.06,1.25-.19,2.51-.21,3.77a27.16,27.16,0,0,0,.22,3.71c0,.27.07.54.1.8a36.54,36.54,0,0,1,.34,6.61c-.06,1.15-.12,2.3-.08,3.46s0,2.11-.08,3.18c-.09,2.15-.22,4.29-.26,6.44,0,1.06-.05,2.13-.1,3.19s0,2-.14,3.06a19.68,19.68,0,0,1-1.07,4,8,8,0,0,1-.65,1.14,14.52,14.52,0,0,1-1.75,1.57l-2.28,1.91a9.3,9.3,0,0,1-1,.64,4,4,0,0,1-.49,0c-.58-.11-1.16-.25-1.73-.41a2.39,2.39,0,0,0-1.27,4.6,16.55,16.55,0,0,0,2.88.51,3.21,3.21,0,0,0,.82,0,4.44,4.44,0,0,0,1.65-.44,11.09,11.09,0,0,0,1.43-1c.93-.74,1.75-1.64,2.64-2.43a15.16,15.16,0,0,0,2.48-2.52,15.44,15.44,0,0,0,1.61-2.82,17.75,17.75,0,0,0,1.18-3.47,37.64,37.64,0,0,0,.56-3.79c.1-1.1.18-2.19.22-3.29s.08-2,.19-3l.06-.41.06-.43c.07-.35.09-.72.14-1.08.08-.66.12-1.34.17-2,.21-2.48.52-5,.54-7.47s-.16-5.07-.39-7.61a25.68,25.68,0,0,1-.18-3.72c.07-1.22.13-2.44.19-3.66,0-.61.06-1.21.12-1.81a6.35,6.35,0,0,1,.22-1c.1-.2.21-.4.33-.59a14.32,14.32,0,0,1,1.52-1.39,8.49,8.49,0,0,1,1.17-.68,22.65,22.65,0,0,1,3.45-.78c.94-.09,1.87-.09,2.81-.11a27.64,27.64,0,0,0,3.86-.44c.69-.06,1.38-.06,2.07-.06a23.92,23.92,0,0,0,3.38-.25c.86-.12,1.7-.37,2.55-.55s2-.39,3-.58a2.83,2.83,0,0,0,1.75-1.35,2.94,2.94,0,0,0,.29-2.25,2.89,2.89,0,0,0-1.34-1.74,2.68,2.68,0,0,0-1.43-.39,4.67,4.67,0,0,0-.82.09Zm-28.55,23.49,0,.22,0-.22Zm-6.68,34.73a2.26,2.26,0,0,1-.33.13l.33-.13Zm-.65.21-.18,0,.18,0Z" transform="translate(-980.01 -491.2)"/><path class="cls-1" d="M993.35,680.41a15.22,15.22,0,0,0-5.22,1.41,9.19,9.19,0,0,0-2.19,1.9,11.17,11.17,0,0,0-1.51,2.16,12.88,12.88,0,0,0-1,2.53c-.17.69-.33,1.38-.5,2.08-.31,1.3-.57,2.62-.79,4s-.47,2.67-.66,4c-.21,1.51-.3,3-.45,4.54a40.88,40.88,0,0,0-.25,4.14c0,.65,0,1.3,0,2s-.08,1.39-.12,2.08,0,1.46,0,2.2,0,1.5,0,2.25c0,1.34,0,2.69-.12,4s-.21,2.67-.29,4-.16,3-.21,4.43a27.25,27.25,0,0,0,.15,4c.16,1.41.24,2.84.27,4.26,0,2.87-.07,5.75,0,8.62.19,5.51.1,11,.16,16.53,0,2.8.05,5.62.21,8.41s.32,5.45.39,8.19c0,1.32,0,2.63,0,4s0,2.61,0,3.91,0,2.65.06,4,.22,2.61.38,3.92.29,2.9.51,4.35c.18,1.21.48,2.41.76,3.61a23.48,23.48,0,0,0,1.06,3.59,10.88,10.88,0,0,1,.61,1.77c.12.58.22,1.16.31,1.75a17.19,17.19,0,0,0,1.33,4.23c.48,1.1,1.1,2.13,1.59,3.24l-.18-.43c.4.94.83,1.84,1.31,2.74a13,13,0,0,0,1.69,2.36,13.43,13.43,0,0,0,2.2,2.06,14.88,14.88,0,0,0,2.46,1.4c.87.41,1.67.94,2.56,1.32a7.12,7.12,0,0,0,1.66.58c.7.13,1.41.21,2.12.3a12,12,0,0,0,2.81,0,7.45,7.45,0,0,0,2.5-.65c.37-.18.72-.4,1.07-.61.61-.37,1.26-.68,1.87-1a2.78,2.78,0,0,0-2.14-5.07c-.52.12-1,.2-1.56.37a7.63,7.63,0,0,0-1.51.69l-.65.41-.2,0a16,16,0,0,1-2.93.12c-.19,0-.39-.09-.58-.15-.86-.45-1.66-1-2.56-1.38a14.15,14.15,0,0,1-2.38-1.32,13.34,13.34,0,0,1-1.69-1.58q-.51-.74-1-1.5c-.44-.75-.75-1.56-1.21-2.3-.19-.31-.42-.6-.63-.9a7,7,0,0,1-.58-1c-.32-.63-.61-1.28-.88-1.93v0a20.15,20.15,0,0,1-.83-2.41c-.23-.9-.54-1.75-.83-2.63a28.31,28.31,0,0,1-1-4.76c-.12-1.16-.16-2.32-.17-3.49s-.11-2.55-.21-3.83a52.76,52.76,0,0,1,.08-7.95c.09-1.29.22-2.59.29-3.89s.05-2.8.05-4.2c0-2.69-.19-5.37-.1-8s.12-5.61.15-8.42,0-5.52,0-8.28c0-1.37-.08-2.73-.16-4.1s-.22-2.77-.26-4.16c-.09-2.86-.12-5.73-.33-8.59-.11-1.43-.29-2.86-.33-4.3s0-2.91.06-4.36.22-2.63.36-4,.2-2.79.23-4.18.14-2.83.09-4.23c0-.7-.07-1.4-.06-2.1s0-1.38,0-2.08c0-1.36-.15-2.71-.09-4.07s.17-2.44.32-3.66a50.49,50.49,0,0,1,1.32-5.53c.26-1,.58-1.88.92-2.81.28-.73.53-1.48.82-2.21a14.78,14.78,0,0,1,1.3-2.2,10,10,0,0,1,.77-.82l.23-.14a21.22,21.22,0,0,1,3-.65,3.2,3.2,0,0,0,2-1.54,3.31,3.31,0,0,0,.34-2.57,3.36,3.36,0,0,0-1.54-2l-.8-.34a3.35,3.35,0,0,0-.89-.12,3.46,3.46,0,0,0-.89.12Zm-6.58,20.4s0-.09,0-.13l-.06.43c0-.1,0-.2,0-.3Z" transform="translate(-980.01 -491.2)"/><path class="cls-1" d="M1184.7,630.59l-1.27.19a4.88,4.88,0,0,0-2,.54,2.67,2.67,0,0,0-1.21,2.32,3.27,3.27,0,0,0,.83,2.18,3.87,3.87,0,0,0,.72.56,3.15,3.15,0,0,0,1.37.37,4.88,4.88,0,0,0,1.78-.24,2.18,2.18,0,0,0,1.57-2.34,2.24,2.24,0,0,0,.5-.58,2,2,0,0,0-.73-2.8,1.9,1.9,0,0,0-1-.26,3,3,0,0,0-.59.06Z" transform="translate(-980.01 -491.2)"/><path class="cls-1" d="M1211.49,646.78a3,3,0,0,0-1.3,1.69c-.21.6-.39,1.19-.55,1.8-.07.27-.13.55-.19.81-.11.45-.15.9-.29,1.34l-.09.25v0h0a2.21,2.21,0,0,0,2.73,2.73,2.74,2.74,0,0,0,1.34-.69,8.85,8.85,0,0,0,1-1.3c.18-.29.33-.61.49-.93.4-.8.7-1.69,1-2.53a2.71,2.71,0,0,0-.28-2.17,2.83,2.83,0,0,0-1.69-1.3,2.64,2.64,0,0,0-.74-.1,2.86,2.86,0,0,0-1.43.38Z" transform="translate(-980.01 -491.2)"/><path class="cls-1" d="M1213.74,647.83l-2.49.3c-.94.1-2.16.14-2.85.9a3.19,3.19,0,0,0-.73,1.26l0,.27a2.26,2.26,0,0,0-.06.82,5.12,5.12,0,0,0,.21,1.09,2,2,0,0,0,3.91-.78c.82-.2,1.68-.3,2.51-.42a1.73,1.73,0,0,0,.77-.45,1.75,1.75,0,0,0,0-2.47,1.78,1.78,0,0,0-1.13-.52Z" transform="translate(-980.01 -491.2)"/><path class="cls-1" d="M1050.88,604.27a14.08,14.08,0,0,0-3.28.62,13,13,0,0,0-3.51,1.9c-.53.38-1,.79-1.53,1.21a11.92,11.92,0,0,0-1.91,2.22c-.53.75-1.05,1.52-1.58,2.27s-1.16,1.39-1.71,2.11-.85,1.17-1.28,1.76a10.13,10.13,0,0,0-1.18,1.91,12.46,12.46,0,0,0-.54,1.39c-.42.5-.82,1-1.21,1.52a10.21,10.21,0,0,0-1.45,2.18,13.42,13.42,0,0,0-.61,1.67,29.14,29.14,0,0,0-.71,4.36,26.06,26.06,0,0,0-.23,4.14,37,37,0,0,0,.52,4.69,18.45,18.45,0,0,0,1.38,5.1c.22.47.44.94.67,1.41a10.56,10.56,0,0,0,1.31,1.95,7.87,7.87,0,0,0,2,1.71,9.29,9.29,0,0,0,2.45.75c.44.24.88.49,1.34.7a9.73,9.73,0,0,0,2.85.78,9.38,9.38,0,0,0,5.08-1.09,15.62,15.62,0,0,0,3.82-2.67,14.28,14.28,0,0,0,1.82-2c.38-.5.71-1,1.07-1.55.31-.35.64-.68,1-1a11.09,11.09,0,0,0,1.25-1.64c.62-1,1.21-2,1.77-3a54.67,54.67,0,0,0,3.46-7.64,37.63,37.63,0,0,0,1.16-4,17.84,17.84,0,0,0,.5-4.77,38.32,38.32,0,0,0-.51-4.67,25.23,25.23,0,0,0-1.33-4.44,13.64,13.64,0,0,0-3.2-5.31,8,8,0,0,0-4.17-2.36,16.84,16.84,0,0,0-2.54-.21c-.31,0-.63,0-.94,0Zm2.46,5.65.51.13a7.39,7.39,0,0,1,.76.47,9.48,9.48,0,0,1,1,.94,11.41,11.41,0,0,1,1.1,1.88,28.4,28.4,0,0,1,1.13,3.08,29.33,29.33,0,0,1,.71,3.22c.06.61.11,1.22.14,1.83a11.29,11.29,0,0,1-.08,1.93,43,43,0,0,1-2.71,9.2l-.28.67,0-.07-.45,1.08.16-.39a26.89,26.89,0,0,1-1.53,2.91c-.44.72-.85,1.47-1.33,2.17-.28.32-.59.61-.9.91a14.31,14.31,0,0,0-1.19,1.39,13.72,13.72,0,0,1-1.37,1.48c-.47.43-1,.84-1.45,1.24a9.62,9.62,0,0,1-1.48.88,11.84,11.84,0,0,1-2,.6,4.57,4.57,0,0,1-.74,0c-.19,0-.39-.1-.58-.16a11.34,11.34,0,0,1-1.29-.78,8.65,8.65,0,0,0-2.28-1,5,5,0,0,1-.27-.51,17.44,17.44,0,0,1-1-3.24c-.08-.83-.13-1.66-.18-2.49-.07-1-.17-2.07-.23-3.1s-.09-2.24-.06-3.37a26.3,26.3,0,0,1,.26-2.63,13,13,0,0,1,.38-1.86,24.71,24.71,0,0,1,2-2.79c.53-.71,1-1.45,1.56-2.18l.13-.13a3.14,3.14,0,0,0,.65-3.38c.2-.31.4-.61.61-.91a22.91,22.91,0,0,0,1.49-2.06c.44-.7.85-1.42,1.32-2.09a9.75,9.75,0,0,1,1-.93,23.46,23.46,0,0,1,2.14-1.3,13.94,13.94,0,0,1,2.2-.57,15.58,15.58,0,0,1,2.16,0Zm-6,1.54-.14.12.14-.12Zm-9.62,17,0,.2,0-.2Zm18.13,4.26c0,.08-.07.17-.1.26,0-.09.07-.18.1-.26Zm-16.76,10.67,0,.09h0l0-.09Z" transform="translate(-980.01 -491.2)"/><path class="cls-1" d="M1047.56,617.59a7.27,7.27,0,0,0-4.14,2.87c-.75.92-1.54,1.78-2.35,2.64l-.19.2a2,2,0,0,0,2.79,2.79,24,24,0,0,1,2-2l1.07-.81c.28-.2.56-.4.85-.57l.09,0h.33s0,.09.07.14a7.18,7.18,0,0,1,.25,1,9,9,0,0,1,0,1,15.57,15.57,0,0,1-.78,2.6c-.38.81-.8,1.6-1.25,2.36a31.55,31.55,0,0,1-1.8,2.79l-.34.43c-.28.35-.55.7-.84,1.05a8.81,8.81,0,0,0-1.39,1.78,3,3,0,0,0,0,3,2.93,2.93,0,0,0,2.55,1.46,6.36,6.36,0,0,0,4.28-2.55,24.39,24.39,0,0,0,1.63-2,16.58,16.58,0,0,0,1-1.63,22.91,22.91,0,0,0,2.78-8.08,10.7,10.7,0,0,0-.33-4.14,6.67,6.67,0,0,0-1.68-3,4.94,4.94,0,0,0-1.91-1.21,4.49,4.49,0,0,0-1.5-.24,6.88,6.88,0,0,0-1.2.12Zm.56,5.11h0l0,0,0,0Zm.15,0a.39.39,0,0,1,.1.08l-.1-.08Z" transform="translate(-980.01 -491.2)"/><path class="cls-1" d="M1045.13,620a8.8,8.8,0,0,0-1.09.38,27.34,27.34,0,0,0-2.58,1.19,15.41,15.41,0,0,0-2.29,1.56,6.68,6.68,0,0,0-1.61,2.15,16.07,16.07,0,0,0-1.77,5.38,5.46,5.46,0,0,0,.88,3.51,6.86,6.86,0,0,0,1.7,1.7l.09.09a2.33,2.33,0,0,0,2.24.59,2.37,2.37,0,0,0,1.69-2.22,5.79,5.79,0,0,0-.16-2.15c-.14-.44-.32-.87-.45-1.31v-.17a13.41,13.41,0,0,1,.3-1.4,3.41,3.41,0,0,0,1.49.36,6.22,6.22,0,0,0,1.21-.13,7.4,7.4,0,0,0,.94-.17c.58-.13,1.15-.3,1.73-.45s1.38-.28,2.06-.4a2.94,2.94,0,0,0,1.83-1.4,3.06,3.06,0,0,0-1-4.15,3.24,3.24,0,0,0-.09-1.07,3,3,0,0,0-.75-1.28,2.9,2.9,0,0,0-1.28-.74,3,3,0,0,0-1.08-.19,8.36,8.36,0,0,0-2,.32Z" transform="translate(-980.01 -491.2)"/><path class="cls-1" d="M1116.26,615.24a25.83,25.83,0,0,0-2.9.37,8.89,8.89,0,0,0-3.18,1.48,17.13,17.13,0,0,0-3.28,2.79,25.83,25.83,0,0,0-2.44,3.35c-.25.42-.44.87-.65,1.31a12.46,12.46,0,0,1-1,1.6,19.59,19.59,0,0,0-1.59,2.5c-.58,1.16-1.2,2.27-1.69,3.48-.24.59-.31,1.24-.5,1.84a12.81,12.81,0,0,1-.47,1.22,26,26,0,0,0-1.36,3.73c-.28,1.07-.72,2.09-1.08,3.14s-.65,2-.9,3.05a32,32,0,0,0-.6,3.8c-.4,2.74-1.12,5.59-.47,8.35a12.84,12.84,0,0,0,1.61,3.68,28.12,28.12,0,0,0,2.56,2.89,2.07,2.07,0,0,0,2.51.33,2.09,2.09,0,0,0,.73-2.83l-.24-.46a15.28,15.28,0,0,0-1.15-2.5,24.81,24.81,0,0,1-1.54-2.56,6.18,6.18,0,0,1-.24-.84,10.49,10.49,0,0,1,.07-1.86,45.65,45.65,0,0,1,2-9.55c.32-.66.66-1.29,1-1.95s.74-1.6,1.17-2.37.91-1.49,1.38-2.23.75-1.3,1.18-1.92.83-.93,1.26-1.39,1-1.06,1.44-1.57,1.07-1,1.58-1.6a20.82,20.82,0,0,0,1.75-2.22c.47-.52,1-1,1.49-1.47s1.19-1.13,1.84-1.65a11.25,11.25,0,0,1,1.28-.89,7.68,7.68,0,0,1,.83-.19,4.53,4.53,0,0,0,3.12,1.29,4.43,4.43,0,0,0,3.13-7.56l-.72-.63c-.35-.29-.7-.56-1.07-.83a7.16,7.16,0,0,0-1.66-.83,5.31,5.31,0,0,0-2.08-.36,11.46,11.46,0,0,0-1.17.06Z" transform="translate(-980.01 -491.2)"/><path class="cls-1" d="M1105.48,634.74l-2.09.35a2.86,2.86,0,0,0-1.8,1.38,3,3,0,0,0-.31,2.33,3.05,3.05,0,0,0,1.39,1.8,3.23,3.23,0,0,0,2.32.3l1.53-.25c.07.23.13.45.18.68a9.27,9.27,0,0,1,0,1.49,12.55,12.55,0,0,1-.57,2,11,11,0,0,1-.86,1.54h0a13,13,0,0,1-2.25,0l-.17,0a3.2,3.2,0,0,0-2.06-1.86,3.05,3.05,0,0,0-3.44,1.4,5.51,5.51,0,0,0-.66,2.2,4.5,4.5,0,0,0,.75,2.83,5.53,5.53,0,0,0,3.59,2.17,16.11,16.11,0,0,0,4.27.28,6.88,6.88,0,0,0,4.87-2,12.77,12.77,0,0,0,1.21-1.61,14.09,14.09,0,0,0,1.5-3.22,9.6,9.6,0,0,0,.4-2.19,8.9,8.9,0,0,0,0-1.63,19.32,19.32,0,0,0-.32-2.39,9.71,9.71,0,0,0-.93-2.4c-.69-1.35-1.64-2.81-3.17-3.24a5.09,5.09,0,0,0-1.44-.19,12.74,12.74,0,0,0-1.94.19Zm.64,5.11,0,0h0l0,0Zm-3.29,6.54Z" transform="translate(-980.01 -491.2)"/></g><g id="Draw_Layer-2" data-name="Draw Layer"><path class="cls-1" d="M1088.86,713.94l-1.15.17h0l-1.06.13a.42.42,0,0,0-.28.12.39.39,0,0,0-.12.28.41.41,0,0,0,.4.4c.8-.1,1.59-.2,2.38-.32a.45.45,0,0,0,.24-.19.41.41,0,0,0,0-.31.39.39,0,0,0-.19-.23.36.36,0,0,0-.2-.06Zm-1.11.17h0Z" transform="translate(-980.01 -491.2)"/><path class="cls-1" d="M1023.63,698.82a13.41,13.41,0,0,0-5.7,2.12,10.61,10.61,0,0,0-2.35,2.38,11.33,11.33,0,0,0-1.65,3.6,11.84,11.84,0,0,0-.27,1.29,10.85,10.85,0,0,0-.18,1.78,10.59,10.59,0,0,0,.22,1.68,7.32,7.32,0,0,0,1.24,2.83,15,15,0,0,0,1.71,2.11,18.75,18.75,0,0,0,2.88,2.28,20.29,20.29,0,0,0,5.49,3,22.08,22.08,0,0,0,4.87.6q.61.15,1.23.36c.24.12.48.25.71.39h0a12.42,12.42,0,0,1,.77,1.55c.11.31.21.63.29.95l0,.06a16.85,16.85,0,0,1-1.18,1.95,35.86,35.86,0,0,1-3.28,3.57l-.39.11a14.25,14.25,0,0,1-2,0,30,30,0,0,1-3.76-.95,4,4,0,0,0-.54-1.67,4.13,4.13,0,0,0-2.46-1.89l-1.09-.15a4.07,4.07,0,0,0-2.07.56,6,6,0,0,0-.63.29l-.43.32a4.23,4.23,0,0,0-1.52,1.51c-.2.44-.39.88-.57,1.33a5.48,5.48,0,0,0,0,2.67,9.43,9.43,0,0,0,.57,1.48,5.9,5.9,0,0,0,1.92,1.93,15.68,15.68,0,0,0,2.7,1.08c.91.27,1.82.49,2.73.72a23.16,23.16,0,0,0,7.22.75,8.49,8.49,0,0,0,6-2.85c.48-.57,1-1.14,1.42-1.72a34.34,34.34,0,0,0,3.38-4.5,9.93,9.93,0,0,0,1.49-4.29,8.17,8.17,0,0,0-.54-3.45,18.16,18.16,0,0,0-1.85-3.75,8.64,8.64,0,0,0-2.28-2.35,10.2,10.2,0,0,0-2.51-1.21,18.49,18.49,0,0,0-4.39-.73,15.26,15.26,0,0,1-1.65-.4,23.79,23.79,0,0,1-2.19-1.39c-.76-.51-1.54-1-2.29-1.51a13.19,13.19,0,0,1-1.29-1.3l-.24-.38,0-.12a7.3,7.3,0,0,1,0-.81,10.7,10.7,0,0,1,.31-1.24c.12-.24.25-.47.39-.7l.25-.26c.16-.1.32-.18.49-.27a24.19,24.19,0,0,1,3.73-1,10.32,10.32,0,0,1,1.57,0l.4.11a22.78,22.78,0,0,1,2.81,1.86l.87.71a3.17,3.17,0,0,0,2.12.88,3,3,0,0,0,2.12-.88,3,3,0,0,0,0-4.24c-.91-.75-1.84-1.47-2.77-2.18a23.55,23.55,0,0,0-2.4-1.69,9.61,9.61,0,0,0-3.89-1.13c-.28,0-.56,0-.83,0a15.79,15.79,0,0,0-2.66.28Zm9.2,27.17a5.55,5.55,0,0,1-.24.56l.24-.56Zm-4,5.08-.1.07.1-.07Z" transform="translate(-980.01 -491.2)"/><path class="cls-1" d="M1062.93,701a10,10,0,0,0-2.9,1.37,30.13,30.13,0,0,0-5.6,5A22.74,22.74,0,0,0,1052,711a18.86,18.86,0,0,0-2.34,6.25c-.2,1.3-.27,2.61-.39,3.92-.1,1.1-.2,2.2-.25,3.3-.1,2.19-.12,4.39-.13,6.58,0,1.44,0,2.88.08,4.32a3.76,3.76,0,0,0,7.51,0,66.63,66.63,0,0,1,.26-9.58c.17-1.08.37-2.15.57-3.23a31.13,31.13,0,0,1,1-4.47,34.59,34.59,0,0,1,2.86-4.73,33,33,0,0,1,3.78-3.69l.28.09a8.78,8.78,0,0,1,.79.44c.22.21.43.44.63.67a13.33,13.33,0,0,1,.83,1.59,24.15,24.15,0,0,1,1,3.17c.11.49.19,1,.26,1.48.31,3.23.46,6.46.64,9.7.1,1.7.19,3.41.36,5.11.25,2.49.64,5.64,3.18,6.92a4.7,4.7,0,0,0,3.48.46,4.63,4.63,0,0,0,2.71-2.08,6.41,6.41,0,0,0,.72-3.92c-.11-1.32-.31-2.63-.5-3.94-.29-2-.6-3.9-.9-5.85-.28-2.35-.57-4.71-.93-7.05-.16-1.06-.38-2.1-.6-3.15a25.62,25.62,0,0,0-2.07-5.49,12.9,12.9,0,0,0-5.26-5.37,12.33,12.33,0,0,0-2.92-1.24,9.15,9.15,0,0,0-2.27-.31,5.31,5.31,0,0,0-1.46.18Z" transform="translate(-980.01 -491.2)"/><path class="cls-1" d="M1064.45,717.18l-8.8.31a3.62,3.62,0,0,0,0,7.24c2.93-.1,5.87-.21,8.8-.35s5.62-.3,8.41-.71a3.31,3.31,0,0,0,2.43-3.19,3.33,3.33,0,0,0-1-2.34,3.56,3.56,0,0,0-2.34-1c-1-.08-1.9-.11-2.86-.11-1.56,0-3.12.08-4.67.13Z" transform="translate(-980.01 -491.2)"/><path class="cls-1" d="M1095.69,702.81a18.5,18.5,0,0,0-1.7.91,12.82,12.82,0,0,0-2.88,2.36,21.22,21.22,0,0,0-1.93,2.41q-.6.87-1.14,1.77a19.53,19.53,0,0,0-1.44,2.94,13.5,13.5,0,0,0-.59,2.29c-.23,1.18-.38,2.37-.53,3.56a20.89,20.89,0,0,0,.17,5.47,12.66,12.66,0,0,0,1.53,4.82c.32.53.68,1,1,1.56s.68,1.13,1,1.68a10.74,10.74,0,0,0,4.29,3.64,12.14,12.14,0,0,0,3.15,1c.75.13,1.5.23,2.25.32a18.45,18.45,0,0,0,3,.31,8.62,8.62,0,0,0,3.53-.86,18.88,18.88,0,0,0,4.34-3.27,9,9,0,0,0,3.07-2.73,2.54,2.54,0,0,0-.39-3,2.5,2.5,0,0,0-1.11-.65,2.54,2.54,0,0,0-1.78.2l.33-.15a13.26,13.26,0,0,0-3,1.51c-.8.57-1.55,1.22-2.31,1.84a10.33,10.33,0,0,1-1.44.83,7.18,7.18,0,0,1-.87.26,15.91,15.91,0,0,1-2.07-.06c-.86,0-1.72-.08-2.58-.16-.41-.08-.81-.17-1.22-.29a10.05,10.05,0,0,1-1.23-.71q-.32-.29-.6-.6c-.07-.12-.14-.24-.2-.37-.26-.64-.51-1.29-.77-1.92a12.81,12.81,0,0,1-.73-2.22,24.4,24.4,0,0,1,.13-3.82c.24-1.51.52-3,.88-4.52a22.6,22.6,0,0,1,.77-2.67l.74-1.89A16.29,16.29,0,0,1,1097,710a10.29,10.29,0,0,1,1-1,8.24,8.24,0,0,1,.85-.55h.34l.47.14a7.79,7.79,0,0,1,1.2.75,3,3,0,0,0,2.39.32,3.13,3.13,0,0,0,1.85-1.43,3.07,3.07,0,0,0,.31-2.39A3.4,3.4,0,0,0,1104,704a8.81,8.81,0,0,0-1.83-1.06,10.29,10.29,0,0,0-3.37-.83h-.35a6.6,6.6,0,0,0-2.73.69Z" transform="translate(-980.01 -491.2)"/><path class="cls-1" d="M1126.73,697.7h0l0,0a2.09,2.09,0,0,0-.23.29,2.76,2.76,0,0,0-.5,1.24c-.08.55-.17,1.11-.23,1.67-.09.81-.21,1.63-.23,2.45a24.39,24.39,0,0,0,.46,5c.2,1.22.5,2.43.71,3.65a65.19,65.19,0,0,1,.1,8.73c-.07,2.2-.11,4.41,0,6.62,0,.82.17,1.64.29,2.45a8.2,8.2,0,0,0,.74,2.1,5,5,0,0,0,1.92,2.14,4.27,4.27,0,0,0,2,.56,3.37,3.37,0,0,0,2.44-1.06,4,4,0,0,0,1-1.86,4.47,4.47,0,0,0-.07-2.38c-.16-.46-.34-.9-.46-1.37a17,17,0,0,1-.46-2.36c-.27-2.81-.3-5.64-.47-8.46a32.54,32.54,0,0,0-1.3-8.66c-.26-.75-.5-1.51-.74-2.27a26.34,26.34,0,0,1-.85-3.92c-.07-.5-.13-1-.2-1.5-.14-1-.23-2.36-1.06-3.06a2.11,2.11,0,0,0-1.41-.58,2,2,0,0,0-1.4.59Z" transform="translate(-980.01 -491.2)"/><path class="cls-1" d="M1147.91,705.86c-2.87,1.73-5.65,3.58-8.45,5.42-1,.68-2.06,1.37-3,2.13-.6.45-1.21.89-1.79,1.38a7.07,7.07,0,0,0-1.86,3,4.84,4.84,0,0,0,0,2.56l.15.35a11.79,11.79,0,0,0,.56,1.26l.22.41a13.4,13.4,0,0,0,1.57,2.33,40.12,40.12,0,0,0,3.46,3.44q1.56,1.47,3.08,3c.51.5,1,1,1.5,1.52a11.74,11.74,0,0,0,.92.82,5.53,5.53,0,0,0,1.31.87,6.4,6.4,0,0,0,1.57.51,3.1,3.1,0,0,0,3.42-1.39,3.06,3.06,0,0,0,.3-2.33,2.78,2.78,0,0,0-.86-1.37,8.79,8.79,0,0,0-.67-1.42,13.88,13.88,0,0,0-1.59-2.07,28.77,28.77,0,0,0-2.43-2.25c-1.57-1.39-3.3-2.65-4.72-4.18l.61-.34a31.57,31.57,0,0,0,3.08-2c2.48-1.74,5-3.39,7.57-4.95a3.82,3.82,0,0,0-2-7.13,3.66,3.66,0,0,0-1.89.52Z" transform="translate(-980.01 -491.2)"/><path class="cls-1" d="M1171.9,697.2c-3.33.31-6.66.64-10,.87a4.93,4.93,0,0,0-3.32,1.38,4.71,4.71,0,0,0,0,6.64,4.59,4.59,0,0,0,3.32,1.38q5-.35,10-1c1.75-.24,3.49-.51,5.22-.86l.88-.23a6.83,6.83,0,0,0,1.68-.78,6.41,6.41,0,0,0,1.14-.94,4.11,4.11,0,0,0,1.1-2.68,3.79,3.79,0,0,0-2.07-3.3,7.8,7.8,0,0,0-3.55-.78h-.44c-1.32,0-2.65.17-4,.3Z" transform="translate(-980.01 -491.2)"/><path class="cls-1" d="M1162,701a3,3,0,0,0-1.43,1.86c-.16,1.14-.39,2.3-.48,3.44,0,.8-.06,1.59-.06,2.38a34.73,34.73,0,0,0,.91,6.08c.09,1,.11,1.93.15,2.92a27.05,27.05,0,0,0,.45,3.34c.18,2,0,3.94.2,5.91.06.5.13,1,.2,1.5a6,6,0,0,0,.67,1.75,4.72,4.72,0,0,0,1,1.27,6.09,6.09,0,0,0,2,1.11,5.31,5.31,0,0,0,1.92.15l.69-.06c.59-.06,1.18-.16,1.77-.24.81-.09,1.63-.17,2.45-.2.44,0,.89,0,1.34,0a28.67,28.67,0,0,0,4.51-.49,26.75,26.75,0,0,0,2.64-.65,13.26,13.26,0,0,0,1.76-.66,4.69,4.69,0,0,0,1.83-1.27,3,3,0,0,0-2.11-5.08,15.47,15.47,0,0,0-2.63.15c-.89.1-1.78.22-2.67.35a37.31,37.31,0,0,1-4.22.24c-.68,0-1.36.07-2,.13s-1.38.17-2.06.27c-.06-.76-.09-1.52-.1-2.29a35.79,35.79,0,0,0-.5-5c0-.56-.09-1.12-.14-1.68a28,28,0,0,0-.46-2.89c-.14-.7-.33-1.39-.51-2.09-.08-.3-.2-.6-.3-.9a10.61,10.61,0,0,1-.36-1.34,18.91,18.91,0,0,1,0-2.38c.06-1,.22-2,.35-3a3.1,3.1,0,0,0-2.28-3,2.91,2.91,0,0,0-.83-.11,3.11,3.11,0,0,0-1.57.42Zm14.71,23.59-.42.06.42-.06Z" transform="translate(-980.01 -491.2)"/><path class="cls-1" d="M1173.35,710.05c-2.43.1-4.85.17-7.28.21a4.07,4.07,0,1,0,0,8.13c2.32,0,4.64-.09,7-.26,1-.08,2-.18,3-.29a15.65,15.65,0,0,0,3.72-.75,3.37,3.37,0,0,0,.8-6.16c-1.24-.86-3-.86-4.43-.93h-.71c-.68,0-1.36,0-2,.06Z" transform="translate(-980.01 -491.2)"/><path class="cls-1" d="M1189.81,700.51c.06,4.7.3,9.41.2,14.11,0,2.18-.19,4.34-.36,6.51-.09,1-.14,2.08-.13,3.12,0,2.32.91,5,3.41,5.63a3.61,3.61,0,0,0,3.48-.92,3.55,3.55,0,0,0,.92-1.58,3.6,3.6,0,0,0,.12-.8c.19-.73.47-1.46.61-2.2.23-1.14.42-2.28.61-3.43a62,62,0,0,0,.65-7.06c.09-2,0-4,0-5.94,0-2.48-.1-5-.13-7.44a4.68,4.68,0,0,0-9.36,0Z" transform="translate(-980.01 -491.2)"/><path class="cls-1" d="M1194.08,696.34a3.5,3.5,0,1,0,1.86,6.74l.37-.08a28.15,28.15,0,0,1,5.11,0c1.26.1,2.53.16,3.78.3a18.42,18.42,0,0,1,2.19.54l0,0a12.58,12.58,0,0,1,1.45,1.47,33,33,0,0,1,2.43,3.65,13.65,13.65,0,0,1,.38,1.56v.28a15.14,15.14,0,0,1-.51,2,13.86,13.86,0,0,1-.94,1.57,16.19,16.19,0,0,1-1.8,1.81,22.84,22.84,0,0,1-4.07,2.34,44.11,44.11,0,0,1-9.62,2.38l-1.07.12-.92.12a3.47,3.47,0,0,0,.92,6.82,20.19,20.19,0,0,0,5.27-.93,42,42,0,0,0,10.36-3.91,20.14,20.14,0,0,0,4.86-3.9,13.06,13.06,0,0,0,3.49-8,9.56,9.56,0,0,0-.2-2.26,12.32,12.32,0,0,0-1.2-3.47,32.26,32.26,0,0,0-2.48-4.15,14.9,14.9,0,0,0-1.65-2,7.74,7.74,0,0,0-3-1.94,14.65,14.65,0,0,0-2.77-.8c-1.71-.3-3.47-.42-5.2-.58-1-.09-2-.15-3-.15a17.41,17.41,0,0,0-4.06.43ZM1207.6,704l.26.21-.26-.21Zm4.13,6.94,0,.18,0-.18Zm-.07.13a1.1,1.1,0,0,1,0,.18,1.1,1.1,0,0,0,0-.18Z" transform="translate(-980.01 -491.2)"/></g><g id="Draw_Layer-3" data-name="Draw Layer"><path class="cls-1" d="M1165.39,647.12a9.19,9.19,0,0,0-5.19,2.19,15.66,15.66,0,0,0-2,2.39,12.58,12.58,0,0,0-1.81,3.44,14,14,0,0,0-.63,3.51,22.76,22.76,0,0,0,0,3.09c0,.88.06,1.75,0,2.62s-.11,1.7-.07,2.57a19.25,19.25,0,0,0,.23,2.13,3.91,3.91,0,0,0-1.11,1.18,4,4,0,0,0-.32.74c-2.63.41-5.25.85-7.88,1.27l-2.67.32c-2.67.26-5.34.44-8,.68l-1.21.11c-.72,0-1.43.09-2.15.12a31.05,31.05,0,0,1-3.86.08,29.43,29.43,0,0,0-3.11-.6,5.78,5.78,0,0,0-3.73.47,4.3,4.3,0,0,0-2,2.62,4.52,4.52,0,0,0,0,2.31,5.39,5.39,0,0,0,1.25,2.06l.85.66,1.69.72a8.41,8.41,0,0,0,1,.28c.54.13,1.07.23,1.62.33,4.8.83,9.68.23,14.52.07,4.56-.15,9.12-.55,13.68-.61,4.72-.07,9.44.26,14.17.42,2,.07,4,.09,6,.22s4.07.25,6.11.3,3.91.06,5.87,0,3.76-.24,5.65-.29c.82,0,1.65,0,2.48,0s1.84,0,2.76,0c1.78,0,3.56-.25,5.35-.29s3.4,0,5.1-.11,3.64-.07,5.14-1a6.23,6.23,0,0,0,2.85-4.17,3.67,3.67,0,0,0,.79-2.25,3.57,3.57,0,0,0-2.61-3.43l-.58-.15a5.37,5.37,0,0,0-2.31-1.05,23.37,23.37,0,0,0-2.36-.28c-.8,0-1.61-.06-2.42-.07a61.23,61.23,0,0,0-9.17.78l1.62-.22c-2,.24-4,.29-6.07.42s-4,.39-6,.53a126.54,126.54,0,0,1-13.21,0c-.42,0-.84,0-1.25,0l-.17-.27.12-.32a2.89,2.89,0,0,0,0-1.88,4.2,4.2,0,0,0,.88-1.69,10.27,10.27,0,0,0,.13-2.93c0-1-.14-2-.17-3s-.06-1.81-.1-2.71a24.67,24.67,0,0,0-.23-3.54,16,16,0,0,0-.62-2.15c-.12-.36-.25-.72-.37-1.07a7.86,7.86,0,0,0-1.59-2.85,5.81,5.81,0,0,0-4.21-1.66,4.44,4.44,0,0,0-.63,0Z" transform="translate(-980.01 -491.2)"/><path class="cls-1" d="M1209.61,636.7a3.82,3.82,0,0,0-1,.92c-.51.62-1.05,1.2-1.5,1.86-.2.29-.37.6-.56.89s-.44.65-.67,1c-.37.52-.73,1-1.11,1.57s-1,1.1-1.43,1.66c-.59.72-1.14,1.48-1.66,2.26-.43.63-.89,1.25-1.36,1.86a5.8,5.8,0,0,0-.81,1.68,3.8,3.8,0,0,0-.15.83,1.89,1.89,0,0,0,.06.64,2,2,0,0,0,.86,1.1,1.75,1.75,0,0,0,1.82,0,2.83,2.83,0,0,0,.87-1c.08-.11.15-.23.22-.34.32-.36.68-.67,1-1a13.05,13.05,0,0,0,1.11-1.35c.31-.42.57-.89.89-1.31l.75-1a14.57,14.57,0,0,1,1.84-1.76c1-.83,1.93-1.71,2.88-2.59a1.93,1.93,0,0,0,0-2.7l-.09-.08,0-.09c.16-.27.33-.51.51-.76a3.32,3.32,0,0,0,.23-.37,1.7,1.7,0,0,0,.17-.47,1.83,1.83,0,0,0,0-.84,1.4,1.4,0,0,0-1-1,1.5,1.5,0,0,0-.56-.1,2.82,2.82,0,0,0-1.44.46Zm-9.15,13.12h0Z" transform="translate(-980.01 -491.2)"/><path class="cls-1" d="M1198.75,650.69a2.22,2.22,0,0,0,.79,3,21.43,21.43,0,0,1,2.38,1.35l.83.74,1.3,1.09a17.36,17.36,0,0,1,1.88,1.86,14.69,14.69,0,0,0,2.39,2.2c.88.65,1.87,1.14,2.76,1.77.56.51,1.07,1.08,1.58,1.64s.93,1,1.42,1.47a1.76,1.76,0,0,0,3-.77,1.9,1.9,0,0,0-.18-1.36l0-.09a14.65,14.65,0,0,0-.85-1.79,8.08,8.08,0,0,0-.49-.75,11.33,11.33,0,0,0-1.38-1.63,35.17,35.17,0,0,0-3.55-2.35,23.42,23.42,0,0,1-1.77-1.82c-.27-.29-.54-.59-.83-.87a12,12,0,0,0-1.24-1c-.29-.23-.58-.46-.86-.7s-.67-.62-1-.91a16.36,16.36,0,0,0-3.07-1.87,2.42,2.42,0,0,0-1.13-.28,2.12,2.12,0,0,0-1.87,1.06Z" transform="translate(-980.01 -491.2)"/><path class="cls-1" d="M1209.72,641.74c-1.37,1.58-2.65,3.21-3.87,4.91l-1,1.38a17.31,17.31,0,0,0-2.66,3.59,2.13,2.13,0,0,0,.76,2.88l.06,0a2.61,2.61,0,0,0,.82.8,2.43,2.43,0,0,0,1.81.34,3,3,0,0,0,.6,1,2.48,2.48,0,0,0,2.4.63l.34-.11c.17.14.35.28.54.41s.23.36.34.55a2.72,2.72,0,0,0,4.7,0,2.63,2.63,0,0,0,.27-2.1,5.67,5.67,0,0,0-1.18-2.1,7.58,7.58,0,0,0-.89-.72A3.21,3.21,0,0,0,1212,651a2,2,0,0,0-.35-.3q.28-.66.51-1.35a1.94,1.94,0,0,0-.47-1.88l.54-.75a11.86,11.86,0,0,0,.72-1.12,2.46,2.46,0,0,0,.42-1.33,2.26,2.26,0,0,0-.49-1.28,1.82,1.82,0,0,0-.53-1.24,2,2,0,0,0-1.38-.54,1.65,1.65,0,0,0-1.27.54Zm2.74,11.16a1.71,1.71,0,0,0,.11.14.76.76,0,0,1-.11-.14Zm-2.81,4.78a1.47,1.47,0,0,1,.1.13l-.1-.13Z" transform="translate(-980.01 -491.2)"/><path class="cls-1" d="M1194.31,659a1.62,1.62,0,0,0-.45,1.09c-.2,2-.38,4-.47,6,0,.74-.08,1.47-.07,2.2a11.62,11.62,0,0,0,.29,3,1.34,1.34,0,0,0,1.27,1,1.32,1.32,0,0,0,1.31-1.31c0-1.62.14-3.25.25-4.86.14-2,.32-4,.52-6a1.49,1.49,0,0,0-.46-1.09,1.53,1.53,0,0,0-2.19,0Z" transform="translate(-980.01 -491.2)"/><path class="cls-1" d="M1195.46,658a1.88,1.88,0,0,0-.56,1.34,1.78,1.78,0,0,0,.56,1.34c1,.85,2.11,1.66,3.18,2.48.75.57,1.53,1.09,2.3,1.63s1.48,1,2.23,1.49a11.25,11.25,0,0,0,2.65,1.41,1.61,1.61,0,0,0,1.83-.75,1.65,1.65,0,0,0-.25-2,13.3,13.3,0,0,0-2.18-1.7l-2.28-1.64c-1.36-1-2.69-2-4-3l-.79-.64a2,2,0,0,0-1.34-.56,1.92,1.92,0,0,0-1.34.56Z" transform="translate(-980.01 -491.2)"/><path class="cls-1" d="M1205.9,658.24l-1.16,2.25c-.17.35-.35.69-.53,1s-.19.41-.29.62-.28.41-.41.62a2.31,2.31,0,0,0-.3,1.47l-.4-.24c-.52-.32-1-.64-1.57-.91s-1.17-.59-1.75-.9a6,6,0,0,0-2.67-.92,3.54,3.54,0,0,0-1.6.43,2.7,2.7,0,0,0-1,1c-.12.28-.24.55-.35.82-.14.92-.25,1.84-.32,2.76,0,.69-.06,1.37-.08,2a15.63,15.63,0,0,0,.21,2.47c0,.31.09.61.15.91a4.53,4.53,0,0,0,.4,1.06c.18.25.37.49.56.73a2.92,2.92,0,0,0,1.28.75,2.85,2.85,0,0,0,1.23.06,2.9,2.9,0,0,0,1.41.36,3.1,3.1,0,0,0,2.06-.85,2.12,2.12,0,0,0,.41-.44,4.48,4.48,0,0,0,1.1.78,5.82,5.82,0,0,0,2.32.56,5.23,5.23,0,0,0,1.37-.14,5.77,5.77,0,0,0,1.38-.47,8.52,8.52,0,0,0,2.16-1.4,3.56,3.56,0,0,0,1.6-.42,5.31,5.31,0,0,0,1.36-1.09,3.3,3.3,0,0,0,.84-3,2.74,2.74,0,0,0-.6-1.19c.11-.45.23-.9.34-1.36a9.72,9.72,0,0,0,.22-1.53,3.07,3.07,0,0,0-.4-1.48,2.19,2.19,0,0,0-1.56-1.09c.13-.36.25-.73.35-1.1a1.85,1.85,0,0,0-1.71-2.3,2.27,2.27,0,0,0-.78-.73,2.34,2.34,0,0,0-1.22-.32,2.29,2.29,0,0,0-2.08,1.18Z" transform="translate(-980.01 -491.2)"/><path class="cls-1" d="M1192.53,629.5c-1,.09-1.91.19-2.86.31-.75.09-1.49.19-2.23.34a8.6,8.6,0,0,0-1.56.58,2.45,2.45,0,0,0-.51.26,2.65,2.65,0,0,0-.89,1,2,2,0,0,0-.27,1.37v0a2.69,2.69,0,0,0,.29,2,3.31,3.31,0,0,0,1.78,1.33,16.27,16.27,0,0,0,3.46.66,12.64,12.64,0,0,0,3.46-.35l1.3-.23c.76-.13,1.51-.24,2.27-.35,1-.13,2-.24,3.06-.28a25.22,25.22,0,0,1,3.58.23,22.38,22.38,0,0,0,3.37.16,6.76,6.76,0,0,0,4.13-1.41,2,2,0,0,0,0-2.81,3,3,0,0,0-1.46-.76,5.64,5.64,0,0,0-1.42-.06,12.94,12.94,0,0,1-2.15-.14c-1.51-.11-3-.26-4.53-.37a18.35,18.35,0,0,0-2.1-.05,2.39,2.39,0,0,0-.7-.68,7.78,7.78,0,0,0-3.72-.8l-.75,0c-.51,0-1,0-1.54.08Z" transform="translate(-980.01 -491.2)"/><path class="cls-1" d="M1199.83,633.29c-.47,1-.94,1.88-1.43,2.81s-1,1.71-1.45,2.57-1,1.78-1.43,2.72c-.19.4-.39.8-.59,1.21a10.19,10.19,0,0,0-.43.95,2.09,2.09,0,0,0,.12,1.84,1.87,1.87,0,0,0,2.53.67c.88-.52,1.09-1.66,1.43-2.55.22-.55.42-1.09.64-1.63.5-1.13,1.09-2.2,1.68-3.28.3-.53.57-1.09.84-1.64s.66-1.31,1-2a1.71,1.71,0,0,0-.6-2.3,1.76,1.76,0,0,0-.85-.22,1.59,1.59,0,0,0-1.45.82Z" transform="translate(-980.01 -491.2)"/><path class="cls-1" d="M1193.16,633.22a3.05,3.05,0,0,0-1.52,2.66,8.14,8.14,0,0,0,.16,2.2c.1.64.21,1.27.35,1.9.35,1.69.73,3.37,1.12,5a2.46,2.46,0,1,0,4.75-1.31c-.51-2.19-1-4.38-1.36-6.61q0-.39,0-.78a2.84,2.84,0,0,0,.13-1,2.43,2.43,0,0,0-.32-1.21A2.35,2.35,0,0,0,1195,633a2.45,2.45,0,0,0-.58-.08,3,3,0,0,0-1.26.32Z" transform="translate(-980.01 -491.2)"/><path class="cls-1" d="M1195,637.56c0,.72,0,1.45,0,2.18a2,2,0,0,0,.5,1.89,1.92,1.92,0,0,0,.86.5,2.07,2.07,0,0,0,2.56-1.64,8.91,8.91,0,0,0,.14-1.46c0-.49,0-1,0-1.47a2,2,0,0,0-2-2,2.06,2.06,0,0,0-2,2Z" transform="translate(-980.01 -491.2)"/><path class="cls-1" d="M1188.68,632.7a16.16,16.16,0,0,0-1.69.3,7,7,0,0,0-2.06.57,2.08,2.08,0,0,0-.29.19,2.6,2.6,0,0,0-1.83,1.2,2.43,2.43,0,0,0,.87,3.3,7.54,7.54,0,0,0,1.61.58,14.21,14.21,0,0,0,1.57.35,12.73,12.73,0,0,0,1.63.2,7.43,7.43,0,0,0,1.68-.21,5.71,5.71,0,0,0,1.83-.83,2.31,2.31,0,0,0,1-2.54,1.94,1.94,0,0,0,.58-1.35,1.9,1.9,0,0,0-1.88-1.87h-.83a18.68,18.68,0,0,0-2.24.12Z" transform="translate(-980.01 -491.2)"/><path class="cls-1" d="M1184.33,635.22a2,2,0,0,0-.91,1.18c-.17.51-.35,1-.5,1.54s-.24.78-.34,1.17a11,11,0,0,0-.29,2c-.08,1-.18,2.06-.27,3.09a14.15,14.15,0,0,0,0,2.76c.09.9.22,1.78.25,2.67s0,2.06,0,3.09.06,1.84.1,2.76q.15,3.1.45,6.21c.11,1.1.17,2.2.25,3.31.06.71.14,1.42.27,2.12.06.32.14.63.21.95s0,.78,0,1.17a3.06,3.06,0,0,0,2,3.13,2,2,0,0,0,.68.08,2.4,2.4,0,0,0,.93,1.07,5.63,5.63,0,0,0,2.71.79,5.86,5.86,0,0,0,2.62-.39,2.61,2.61,0,0,0,1.5-1.14,2.51,2.51,0,0,0,.33-1.51l1.7-.73h0a1.75,1.75,0,0,0,.81-.47,1.79,1.79,0,0,0,.14-2.41,1.53,1.53,0,0,0,.61-.94,1.72,1.72,0,0,0-.16-1.22,1.58,1.58,0,0,0-.58-.57h0a3.24,3.24,0,0,0-1.25-.34,7.64,7.64,0,0,0-1.26-.1c-.76,0-1.51.07-2.26.14a17.27,17.27,0,0,0-2.78.42,4.51,4.51,0,0,0-.65.22l0-.57c-.1-2.13-.31-4.25-.5-6.38-.17-2-.31-3.94-.3-5.92,0-1,0-2,0-3a15,15,0,0,0-.55-3.26c-.26-1-.46-2-.63-3a15.31,15.31,0,0,1-.14-3.17,20,20,0,0,1,.69-2.52,2,2,0,0,0-1.38-2.42,2.25,2.25,0,0,0-.52-.07,2,2,0,0,0-1,.27Z" transform="translate(-980.01 -491.2)"/><path class="cls-1" d="M1194.81,657.4a.67.67,0,0,0-.22.51c.06.5.13,1,.19,1.49a14.64,14.64,0,0,0,.3,1.58.67.67,0,0,0,1.23.16.72.72,0,0,0,.07-.52l-.09-.52c-.08-.73-.15-1.46-.24-2.19a.75.75,0,0,0-.21-.51.74.74,0,0,0-.52-.22.7.7,0,0,0-.51.22Z" transform="translate(-980.01 -491.2)"/><path class="cls-1" d="M1179.65,632.06a1.35,1.35,0,0,0-.15.26,1.38,1.38,0,0,0-.33.57,1.28,1.28,0,0,0-.05.27.5.5,0,0,0,0,.13c-.77.23-1.56.38-2.35.56-.42.09-.83.2-1.24.31a6.73,6.73,0,0,0-1.57.52,2.11,2.11,0,0,0-.75,2.88,2.27,2.27,0,0,0,1.31,1,2.67,2.67,0,0,0,.47.07,1.19,1.19,0,0,0,.08.2,2.1,2.1,0,0,0-.41,1.89,2.18,2.18,0,0,0,1,1.28,2,2,0,0,0,1.65.22l.83-.34.45-.35c-.08.82-.17,1.63-.21,2.44a13.56,13.56,0,0,0,.17,3.92,2.29,2.29,0,0,0,.17.46c0,.78-.08,1.55-.13,2.32-.06.94-.14,1.89-.13,2.82s0,2,0,3a36.71,36.71,0,0,1,.26,5.44,5.57,5.57,0,0,0,0,2.3,5,5,0,0,0,2.21,3.08,3.48,3.48,0,0,0,5-1.67,6.77,6.77,0,0,0,.71-2.1,11.1,11.1,0,0,0,.18-2.06,19.31,19.31,0,0,0-.55-3.54c-.19-.86-.45-1.71-.63-2.57s-.36-1.81-.52-2.72c-.38-3-.71-5.94-1.12-8.9v-.66a13.27,13.27,0,0,0-.17-2c-.08-.45-.18-.89-.25-1.34,0-.2,0-.4,0-.59s0-.34,0-.51v0a2.41,2.41,0,0,0,0-.38c0-.47,0-.95.09-1.42.06-.7.12-1.4.17-2.11a5,5,0,0,0-.2-2.14,2.18,2.18,0,0,0-.53-.92,2.82,2.82,0,0,0-1.07-.59,1.52,1.52,0,0,0-.55-.1,2.23,2.23,0,0,0-1.79,1.06Z" transform="translate(-980.01 -491.2)"/><path class="cls-1" d="M1181.71,641.37a3.59,3.59,0,0,0-1,2.46c-.25,4.8-.48,9.61-.62,14.42-.06,2.29-.12,4.58-.22,6.88,0,1-.12,2-.17,3.08a6.85,6.85,0,0,0,.07,1.2,5.24,5.24,0,0,0,.56,2.09,3.76,3.76,0,0,0,.73,1,3,3,0,0,0,3.62.47c2.57-1.63,2.47-4.89,2.52-7.58,0-2.28,0-4.58,0-6.86,0-4.89.24-9.78.48-14.65a3.47,3.47,0,0,0-5.93-2.46Z" transform="translate(-980.01 -491.2)"/><path class="cls-1" d="M1170,667.54a3.45,3.45,0,0,0,0,4.88,3.58,3.58,0,0,0,2.44,1c1.4.11,2.81.23,4.21.29a12.75,12.75,0,0,0,2.31-.15,5.33,5.33,0,0,0,2.18-.74,2.11,2.11,0,0,0,.76-.66l.44-.57c.11-.27.22-.53.34-.8a2.58,2.58,0,0,0-.28-2.06,2.82,2.82,0,0,0-1.6-1.23,9,9,0,0,0-2.2-.36c-2-.28-4.1-.44-6.16-.62h-.18a3.44,3.44,0,0,0-2.26,1Z" transform="translate(-980.01 -491.2)"/><path class="cls-1" d="M1177.38,665c-2.33.29-4.64.69-7,1.11a4.2,4.2,0,0,0-2.61,2,4.37,4.37,0,0,0-.45,3.37,4.43,4.43,0,0,0,2,2.62,4.65,4.65,0,0,0,3.37.44c1.81-.33,3.62-.63,5.42-1a27.21,27.21,0,0,0,4.61-1.3,3.52,3.52,0,0,0,1.56-5.88,5.94,5.94,0,0,0-4.44-1.53,23,23,0,0,0-2.52.18Z" transform="translate(-980.01 -491.2)"/><path class="cls-1" d="M1179.68,664.38h0l-.26,0h0a24.13,24.13,0,0,1-3.5.25c-1.62,0-3.24-.1-4.86-.17a2.2,2.2,0,0,0,0,4.4c1.65.05,3.29.1,4.94.09a19.35,19.35,0,0,0,2.4-.26,8.4,8.4,0,0,0,1-.19,6.73,6.73,0,0,0,1.53-.62,1.92,1.92,0,0,0,0-3.3,1.74,1.74,0,0,0-.93-.25l-.29,0Zm-.39,0h0Z" transform="translate(-980.01 -491.2)"/><path class="cls-1" d="M1168.1,630.79c-1.07.16-2.15.32-3.22.54s-2.2.46-3.3.72c-.55.13-1.08.28-1.62.46-.24.08-.46.19-.69.28a13,13,0,0,0-1.32.59,4,4,0,0,0-1.26,1.28,3.29,3.29,0,0,0-.44,1.65,3.27,3.27,0,0,0,4.75,2.93l.91-.3c.66-.18,1.33-.32,2-.44,1.17-.22,2.34-.41,3.51-.59a30.14,30.14,0,0,1,6.22-.29,6.22,6.22,0,0,1,.71.19l.5.25a3,3,0,0,0,3-5.14,13.45,13.45,0,0,0-1.73-.78,8.05,8.05,0,0,0-2-.42c-.47-.05-.94-.09-1.42-.1a1.85,1.85,0,0,0-.25-.32,2.73,2.73,0,0,0-2.11-.79,15,15,0,0,0-2.28.28Z" transform="translate(-980.01 -491.2)"/><path class="cls-1" d="M1158.86,635.45a2.58,2.58,0,0,0,.75,1.82,2.73,2.73,0,0,0,1.82.76c1.6.14,3.21.28,4.8.44a15.37,15.37,0,0,1,2.2.64c.31.15.61.3.91.48.44.4.87.84,1.3,1.25a18.58,18.58,0,0,1,1.63,1.69l-.21-.28.77,1a18.54,18.54,0,0,0,1.83,2.4c.48.49,1,.89,1.51,1.37l.13.23c.44,1.24.74,2.55,1.09,3.82a21.48,21.48,0,0,0,.73,2.32c.31.74.67,1.45,1,2.17,0,.07,0,.14.08.22a2.71,2.71,0,0,0,2.56,2,2.66,2.66,0,0,0,2.56-2,26.15,26.15,0,0,0,.44-2.65,9.42,9.42,0,0,0-.2-2.37c-.11-.67-.26-1.33-.4-2a20.64,20.64,0,0,0-.46-2.07,18.42,18.42,0,0,0-.89-2.27,7.47,7.47,0,0,0-.66-1.25,8,8,0,0,0-1.22-1.5,14,14,0,0,0-1.29-1,23,23,0,0,1-1.67-1.75l-1-1.07a11.51,11.51,0,0,0-1.76-1.34l-.76-.59.64.49c-.64-.51-1.25-1-1.91-1.53a8.8,8.8,0,0,0-1.94-1,10.43,10.43,0,0,0-1.83-.64,10.1,10.1,0,0,0-2.94-.33,18.89,18.89,0,0,1-2.38.15c-.89,0-1.78-.11-2.67-.18h-.17a2.61,2.61,0,0,0-2.4,2.58Z" transform="translate(-980.01 -491.2)"/><path class="cls-1" d="M1158.53,632.69c-.77.08-1.54.19-2.31.32a2.57,2.57,0,0,0-.88.11l-1.32.2c-1.18.15-2.36.3-3.52.55-.33.07-.67.16-1,.25l-.72.13c-.87.17-1.72.45-2.59.64a2.79,2.79,0,0,0-.32,5.27,2.65,2.65,0,0,0,.36,1.09l.34.44a16.5,16.5,0,0,0-1.36,2.18,13.55,13.55,0,0,0-1.3,5c-.12,1.14-.27,2.27-.32,3.42s-.22,2.22-.24,3.34,0,2.43,0,3.64c0,2.36-.1,4.75.12,7.11a39.21,39.21,0,0,0,.63,4.44c.31,1.58,1.08,3.5,2.82,3.91a2,2,0,0,0,2.29-.93,6.48,6.48,0,0,0,.59-3c0-.81.06-1.61,0-2.42s-.15-1.75-.21-2.62-.09-1.75-.11-2.63c0-1.61,0-3.22-.08-4.84,0-.86-.08-1.72-.11-2.58a8.92,8.92,0,0,1,.09-1.63c.09-.6.17-1.19.24-1.79s.24-1.5.36-2.25a12.88,12.88,0,0,1,.71-2.44c.41-.85,1-1.65,1.44-2.45.28-.45.59-.89.84-1.37s.44-.81.69-1.19a10,10,0,0,1,1.14-1c.43-.34.84-.71,1.26-1.06.67-.27,1.32-.55,2-.83a6.46,6.46,0,0,0,2.22-1.27,5,5,0,0,0,.57-.72,2.61,2.61,0,0,0,.34-1.31,2,2,0,0,0-.28-1.17v-.09a2.43,2.43,0,0,0-2.27-2.42Zm-8.79,19,0,.22,0-.22Zm-.21,1.55-.09.65.09-.65Z" transform="translate(-980.01 -491.2)"/><path class="cls-1" d="M1145.22,663.57a2,2,0,0,0,0,2.82,10,10,0,0,0,1.59,1.39h0a2,2,0,0,0-.6,1.44,2,2,0,0,0,.6,1.45l.35.29a3.33,3.33,0,0,0-.33,1.41,3,3,0,0,0,.83,2.07,3.58,3.58,0,0,0,1.94.94,10.25,10.25,0,0,0,2.41.14,15.33,15.33,0,0,0,2.24-.34,2.82,2.82,0,0,0,1.88-3.76,8.6,8.6,0,0,0,.84-.47,2.42,2.42,0,0,0,1.1-2.7.56.56,0,0,0,0-.12,3.1,3.1,0,0,0,1.25-.67,1.92,1.92,0,0,0,.5-.86,2.09,2.09,0,0,0-.19-1.51,1.93,1.93,0,0,0-1.21-1,3,3,0,0,0-1.6,0c-.39.08-.79.22-1.18.32-.73.18-1.46.34-2.2.46a13.9,13.9,0,0,1-2.81-.07,8.3,8.3,0,0,1-1.47-.36c-.12-.07-.24-.14-.35-.22s-.49-.47-.73-.72a2,2,0,0,0-2.81,0Z" transform="translate(-980.01 -491.2)"/><path class="cls-1" d="M1119.7,633.18a4.78,4.78,0,0,0-1.33.51,4.69,4.69,0,0,0-1.54,1.43,4.18,4.18,0,0,0-.5,1.07,3.78,3.78,0,0,0,0,1.86c.09.23.17.46.27.68l-.28.3a25.61,25.61,0,0,0-1.94,2.34,3.1,3.1,0,0,0-.52,1.35c0,.28-.08.56-.11.84a7.53,7.53,0,0,0,.16,1.06,3.77,3.77,0,0,0,.92,1.58,3.25,3.25,0,0,0,1,.66,3.52,3.52,0,0,0-.48,1.81,3,3,0,0,0,2.4,2.94,2.72,2.72,0,0,0,1.54.48,2.65,2.65,0,0,0,1.92-.79l.54-.62c.48-.51,1-1,1.51-1.46.68-.65,1.37-1.29,2.06-1.92l2.19-2,.5-.46a48.69,48.69,0,0,1,5.78.42,83,83,0,0,0,9,1,15.17,15.17,0,0,0,2-.09,5.83,5.83,0,0,0,2.22-.57,3.42,3.42,0,0,0,2-3,2.83,2.83,0,0,0-.83-2,3.67,3.67,0,0,0-.41-.34l.08-.12a2.72,2.72,0,0,0-1-3.7,14.17,14.17,0,0,0-1.78-.79,10.92,10.92,0,0,0-2.49-.44,1.83,1.83,0,0,0-1-.57,56.4,56.4,0,0,0-8-.75c-1,0-2.06,0-3.09,0-1.4,0-2.8,0-4.18-.1-.27-.05-.52-.12-.78-.19a10.28,10.28,0,0,0-1.83-.3c-.65-.09-1.29-.18-1.94-.24l-.39,0a9.29,9.29,0,0,0-1.65.2Z" transform="translate(-980.01 -491.2)"/><path class="cls-1" d="M1149.24,632.42c-.48.1-1,.19-1.44.31l-2.22.57c-1.23.13-2.47.25-3.71.42a4.47,4.47,0,0,0-1.31.4,2.87,2.87,0,0,0-1.1.92l-2.9.88a3.63,3.63,0,1,0,1.93,7l1.67-.5c-.09.19-.17.38-.25.58a15.67,15.67,0,0,0-.54,1.68,20.65,20.65,0,0,0-.31,4.58c0,1.36.08,2.7.11,4a32.13,32.13,0,0,0,.5,4.49,13.29,13.29,0,0,1,0,2.36c-.12.71-.27,1.41-.37,2.12a21.47,21.47,0,0,0-.24,2.25l-.06,1.66c0,1-.14,2-.22,3.05a14,14,0,0,0,.3,4.23,3.7,3.7,0,0,0,7.13,0,25,25,0,0,0,.49-6.9c-.06-.95-.11-1.89-.13-2.84a19.34,19.34,0,0,1,.23-2.73,10.31,10.31,0,0,0,0-2.29c-.08-.91-.2-1.82-.28-2.73-.19-2-.36-4-.62-6l.06.41a30.91,30.91,0,0,0-.57-3.84q-.21-.78-.48-1.53a6.79,6.79,0,0,1-.29-1.16,9.71,9.71,0,0,1-.06-1.21c.14-.26.29-.52.42-.79a5.94,5.94,0,0,0,.35-1l.22-.07a63.49,63.49,0,0,0,6.61-2.11l-.4.17,1.07-.44a3.08,3.08,0,0,0,.73-.6h0a3.33,3.33,0,0,0,.84-1.44,3.42,3.42,0,0,0,0-1.74,3.53,3.53,0,0,0-1.5-1.95,3,3,0,0,0-1.79-.51,9.57,9.57,0,0,0-1.87.24Zm-4.61,10,0,.07,0-.07Zm-.13.43v.1s0-.06,0-.1Z" transform="translate(-980.01 -491.2)"/><path class="cls-1" d="M1124,639.75a12.76,12.76,0,0,0-1.86,3.15,4.23,4.23,0,0,0-2.48.55,4.74,4.74,0,0,0-2.17,3,4.31,4.31,0,0,0-1.27,3c0,.33,0,.66,0,1,0,1.56,0,3.11,0,4.67,0,.56-.11,1.13-.18,1.69-.15,1.08-.3,2.15-.44,3.23a24.7,24.7,0,0,0-.24,6,23.07,23.07,0,0,0,1,5c.24.69.52,1.36.81,2a8.38,8.38,0,0,0,1.61,2.39l0,0a4.43,4.43,0,0,0,1.41,1,8.28,8.28,0,0,0,1.72.79c.44.14.87.25,1.32.35a22,22,0,0,0,3.61.42,30.27,30.27,0,0,0,3.16,0,19.89,19.89,0,0,0,2.18-.23,9.81,9.81,0,0,0,2-.48,5.48,5.48,0,0,0,2.13-1.28,4.22,4.22,0,0,0,1.18-2.37,3,3,0,0,0,1.16-.5l0,0a4.57,4.57,0,0,0,.72.58,4.16,4.16,0,0,0,4,0,4.82,4.82,0,0,0,2-2,13.61,13.61,0,0,0,.7-1.73,7.88,7.88,0,0,0,.43-1.91l0-.13a4.37,4.37,0,0,0,.55-.8,5.56,5.56,0,0,0,.54-2c.08-.74.13-1.49.17-2.23a35.27,35.27,0,0,0,0-5.14,33.56,33.56,0,0,0-.69-5.38c-.18-.7-.38-1.4-.59-2.09-.15-.46-.31-.92-.44-1.38a3.07,3.07,0,0,0-.19-1.48c-.08-.22-.17-.42-.25-.61a2.91,2.91,0,0,0-1.17-3.5l-.14-.15a7.2,7.2,0,0,0-2.32-3.07,3.3,3.3,0,0,0-1.21-.42l-.67-.46a2.84,2.84,0,0,0-3.34,4.56,17.71,17.71,0,0,0,.21,2,11.29,11.29,0,0,0,.73,2.81,12.93,12.93,0,0,0,.86,1.8,6.88,6.88,0,0,0,.78,1c.13.12.25.22.38.32.34,1.07.64,2.16.89,3.25.21.87.3,1.78.43,2.66.12.72.26,1.44.39,2.17s.17,1.69.26,2.54a4,4,0,0,0-1.91,0,4.4,4.4,0,0,0-2.48,2c-.26.34-.53.67-.78,1a5.36,5.36,0,0,0-1.55,0,6.09,6.09,0,0,1-1.35,0c-.49-.16-1-.29-1.48-.43a3.49,3.49,0,0,0-1-.4,3.09,3.09,0,0,0-.73-.12c0-.86,0-1.72,0-2.58,0-1.81,0-3.63.11-5.44,0-1.05,0-2.09,0-3.14.06-.68.11-1.36.16-2,.09-1.29.17-2.56.25-3.84,0-.58,0-1.16.08-1.74,0-.31,0-.62,0-.93a3.5,3.5,0,0,0-.87-2.34,9.43,9.43,0,0,0-.28-1.22,3.6,3.6,0,0,0-2.39-2.54,3.48,3.48,0,0,0-.9-.12,3.57,3.57,0,0,0-2.72,1.3Zm20,30.79,0,.13a.59.59,0,0,1,0-.13Z" transform="translate(-980.01 -491.2)"/><path class="cls-1" d="M1130.31,639.13a2.74,2.74,0,0,0-1.51,1.16c-.62.84-1.23,1.69-1.84,2.53a7,7,0,0,0-1.44,2.84,2.22,2.22,0,0,0,0,1.2,2.25,2.25,0,0,0,3.76,1,28.54,28.54,0,0,0,2-2.5c.64-.82,1.25-1.67,1.87-2.51a2.42,2.42,0,0,0,.25-2A2.54,2.54,0,0,0,1131,639a2.52,2.52,0,0,0-.67.09Z" transform="translate(-980.01 -491.2)"/><path class="cls-1" d="M1130.73,637.42a3.46,3.46,0,0,0-1.9,1.46L1125,644c-.46.62-.92,1.25-1.37,1.88a7.35,7.35,0,0,0-1.39,2.76,2.88,2.88,0,0,0,4.23,3.25,7.76,7.76,0,0,0,2.46-2.51c.48-.64,1-1.29,1.42-1.94l3.95-5.31a3.11,3.11,0,0,0,.32-2.46,3.17,3.17,0,0,0-3.08-2.33,3,3,0,0,0-.84.11Z" transform="translate(-980.01 -491.2)"/><path class="cls-1" d="M1129.29,640.18l-4,3.89c-.59.57-1.17,1.15-1.75,1.73-.8.8-1.84,1.73-2,2.89a2.63,2.63,0,0,0,0,1.42,2.68,2.68,0,0,0,1.22,1.58,2.71,2.71,0,0,0,3.21-.42c1.22-1,2.33-2.27,3.47-3.4l3.78-3.74a2.82,2.82,0,0,0,0-4,2.81,2.81,0,0,0-4,0Z" transform="translate(-980.01 -491.2)"/></g><g id="Draw_Layer-4" data-name="Draw Layer"><path class="cls-1" d="M1017.73,658.44a14.33,14.33,0,0,1,0,2.45,20.7,20.7,0,0,1-1.13,3.77,40,40,0,0,1-3.94,6.63c-.86,1.05-1.74,2.08-2.66,3.07-1.24,1.35-3.08,2.76-3.08,4.76a2.44,2.44,0,0,0,1.79,2.34c2.23.47,4-1.18,5.39-2.71,1.06-1.16,2-2.38,3-3.62a45.06,45.06,0,0,0,2.9-4.48,29.73,29.73,0,0,0,2.58-5.86,16.49,16.49,0,0,0,.84-6.35,3,3,0,0,0-.82-2,2.84,2.84,0,0,0-4.84,2Z" transform="translate(-980.01 -491.2)"/><path class="cls-1" d="M1019.27,656.1a2.05,2.05,0,0,0-1.3,1c-.57,1.31-1.16,2.61-1.78,3.91-.38.81-.72,1.65-1.16,2.43a56.88,56.88,0,0,1-3.65,5.91,29.49,29.49,0,0,1-4.34,4.09c-1.12.81-2.21,1.66-3.28,2.54-.43.36-.85.72-1.25,1.11a4.15,4.15,0,0,0-1.44,2.21,2.45,2.45,0,0,0,.23,1.72,2.18,2.18,0,0,0,1.92,1.1,4,4,0,0,0,1-.17,4.59,4.59,0,0,0,1.41-.81c.33-.27.63-.57.93-.86.65-.62,1.32-1.23,2-1.82s1.52-1.26,2.25-1.93a38.66,38.66,0,0,0,3.19-3.21,32.8,32.8,0,0,0,3.09-4.55c.55-.89,1-1.84,1.53-2.75s.79-1.59,1.17-2.4c.67-1.43,1.33-2.87,2-4.33a2.32,2.32,0,0,0,.22-1.67,2.15,2.15,0,0,0-1-1.3,2.12,2.12,0,0,0-1.1-.3,2.24,2.24,0,0,0-.57.08Z" transform="translate(-980.01 -491.2)"/><path class="cls-1" d="M1020.38,660.25c-3.35,5.38-6.73,10.75-10,16.16a3.54,3.54,0,0,0,0,3.56,3.5,3.5,0,0,0,3,1.75,4.34,4.34,0,0,0,2.12-.51,9.86,9.86,0,0,0,1.46-1.11,6,6,0,0,0,.68-.74,3.11,3.11,0,0,0,2.13.29,9,9,0,0,0,3.59-1.93l.3-.23a2.94,2.94,0,0,0,2.79,2.38h1.25a3.6,3.6,0,0,0,.78,1.21,3.39,3.39,0,0,0,3.25.86,9.78,9.78,0,0,0,2.17-.88,3.39,3.39,0,0,0,1.87.51,4.53,4.53,0,0,0,2.93-1.26l.43-.37c2.06-.15,4.11-.37,6.17-.57,1,0,1.93,0,2.89,0,3.44,0,6.88.14,10.31.42s7,.61,10.45.89l1.22.1,1.31.2a4.14,4.14,0,0,0,1.37,1.36,6.83,6.83,0,0,0,1.66.68,7.75,7.75,0,0,0,2.36.17c.58,0,1.15-.08,1.73-.15a5.36,5.36,0,0,0,2.35-.67,4.21,4.21,0,0,0,2-2.64,4.29,4.29,0,0,0,0-2.25A4.13,4.13,0,0,0,1081,675a6.61,6.61,0,0,0-2-.68l-1.32-.18c-1.81-.27-3.61-.52-5.44-.67-1.57-.12-3.15-.1-4.72-.12h-1l-.07-.06-.77-.6a3.89,3.89,0,0,0-1.92-.52c-1-.1-2-.15-3.08-.24s-1.77-.18-2.65-.28c-2.36-.4-4.69-.89-7-1.39-1.25-.27-2.51-.45-3.78-.6a3.11,3.11,0,0,0-3.06-2.64,5.29,5.29,0,0,0-2.29.55,2.69,2.69,0,0,0,.34-1.28,2.77,2.77,0,0,0-.76-1.82l-.12-.15a2.54,2.54,0,0,0-2.56-.68,5,5,0,0,0-1.13.56c-.36.25-.69.5-1,.77l-.37.28a2.52,2.52,0,0,0-.08-.53,2.63,2.63,0,0,0-4-1.33,2.48,2.48,0,0,0,0-1.72,2.78,2.78,0,0,0-1.21-1.58,2.64,2.64,0,0,0-2-.27,7.57,7.57,0,0,0-2.26,1.33,3.58,3.58,0,0,0-1.59-2.11,3.41,3.41,0,0,0-1.72-.47,3.61,3.61,0,0,0-3,1.72Z" transform="translate(-980.01 -491.2)"/></g></svg>